<?xml version="1.0" encoding="utf-8"?>
<!-- Generator: Adobe Illustrator 27.5.0, SVG Export Plug-In . SVG Version: 6.00 Build 0)  -->
<svg version="1.1" xmlns="http://www.w3.org/2000/svg" xmlns:xlink="http://www.w3.org/1999/xlink" x="0px" y="0px"
	 viewBox="0 0 500 500" style="enable-background:new 0 0 500 500;" xml:space="preserve">
<g id="BACKGROUND">
	<rect style="fill:#FFFFFF;" width="500" height="500"/>
</g>
<g id="OBJECTS">
	<ellipse style="fill:#F2F2F2;" cx="241.981" cy="209.777" rx="70.209" ry="66.575"/>
	<g>
		<path style="fill:#1D1D1B;" d="M78.337,330.833c-0.231-0.862-0.463-1.718-0.719-2.551c-0.249-0.808-0.509-1.599-0.797-2.352
			c-0.137-0.358-0.28-0.707-0.427-1.049c-0.101-0.234-0.207-0.431-0.32-0.618c-0.086-0.292-0.172-0.586-0.258-0.877
			c0.046,0.037,0.09,0.082,0.136,0.118c0.314,0.241,0.715,0.526,1.055,0.271c0.174-0.131,0.257-0.4,0.233-0.765
			c-0.032-0.481-0.151-0.911-0.28-1.311c-0.13-0.403-0.248-0.802-0.355-1.232c-0.237-0.945-0.459-1.909-0.725-2.823
			c-0.476-1.631-1.044-3.159-1.36-4.96c0.086,0.164,0.174,0.327,0.265,0.481c0.235,0.396,0.481,0.734,0.775,0.939
			c0.189,0.132,0.405-0.206,0.407-0.593c0.004-0.92-0.214-1.781-0.437-2.553c-0.225-0.778-0.472-1.531-0.706-2.298
			c-0.251-0.824-0.587-1.534-0.884-2.291c-0.274-0.698-0.612-1.571-0.648-2.492c0-0.007-0.002-0.012-0.003-0.019
			c0.081,0.05,0.163,0.092,0.242,0.144c0.183,0.121,0.354,0.296,0.521,0.481c0.331,0.366,0.643,0.796,0.98,1.138
			c0.245,0.248,0.522-0.147,0.472-0.694c-0.081-0.871-0.334-1.612-0.541-2.374c-0.232-0.855-0.425-1.754-0.654-2.613
			c-0.435-1.634-0.798-3.338-1.238-4.966c0.011,0.021,0.019,0.046,0.03,0.066c0.152,0.292,0.319,0.556,0.483,0.819
			c0.318,0.51,0.642,1.011,0.966,1.506c0.193,0.295,0.455-0.181,0.406-0.597c-0.204-1.748-0.634-3.292-1.09-4.814
			c-0.234-0.78-0.448-1.576-0.665-2.375c-0.15-0.551-0.371-1.039-0.518-1.597c0.027,0.04,0.054,0.082,0.081,0.121
			c0.243,0.353,0.511,0.638,0.799,0.827c0.169,0.111,0.365-0.179,0.365-0.532c0.001-1.425-0.452-2.702-0.722-3.962
			c-0.222-1.035-0.513-2.019-0.741-3.053c0.187,0.299,0.382,0.584,0.592,0.811c0.188,0.202,0.504-0.134,0.416-0.612
			c-0.341-1.851-0.559-3.796-1.023-5.547c-0.236-0.891-0.464-1.779-0.676-2.694c-0.105-0.453-0.204-0.912-0.313-1.361
			c-0.104-0.428-0.205-0.962-0.38-1.291c-0.014-0.026-0.031-0.044-0.049-0.058c-0.006-0.23-0.189-0.314-0.267-0.103
			c-0.327,0.885-0.55,1.804-0.75,2.824c-0.194,0.992-0.344,2.031-0.569,2.997c-0.374,1.603-0.945,3.053-1.232,4.727
			c-0.171,0.495-0.335,0.999-0.491,1.51c-0.414,1.35-0.777,2.758-1.16,4.141c-0.144,0.521,0.131,1.218,0.417,0.862
			c0.418-0.522,0.76-1.184,1.067-1.921c-0.076,0.485-0.15,0.97-0.231,1.452c-0.042,0.114-0.083,0.229-0.126,0.343
			c-0.337,0.911-0.69,1.801-0.994,2.758c-0.598,1.882-1.358,3.756-1.664,5.917c-0.05,0.351,0.078,0.842,0.29,0.795
			c0.466-0.104,0.808-0.883,1.114-1.531c0.163-0.346,0.335-0.671,0.51-0.99c-0.167,0.686-0.338,1.37-0.501,2.057
			c-0.136,0.575-0.28,1.151-0.424,1.73c-0.266,0.854-0.533,1.707-0.791,2.572c-0.345,1.159-0.692,2.294-1.069,3.414
			c-0.36,1.069-0.722,2.199-0.891,3.445c-0.072,0.529,0.201,0.97,0.448,0.709c0.818-0.861,1.615-1.821,2.34-2.972
			c-0.004,0.019-0.008,0.039-0.013,0.058c-0.076,0.233-0.153,0.466-0.228,0.701c-0.342,1.072-0.629,2.23-0.911,3.366
			c-0.523,2.107-0.93,4.287-1.73,6.074c-0.319,0.711-0.752,1.547-0.791,2.544c-0.012,0.309,0.139,0.663,0.303,0.628
			c0.73-0.155,1.354-1.01,1.927-1.891c-0.156,0.524-0.31,1.051-0.466,1.573c-0.336,1.123-0.658,2.263-0.982,3.4
			c-0.325,1.143-0.618,2.318-0.89,3.512c-0.268,1.176-0.464,2.387-0.699,3.585c-0.245,1.251-0.621,2.35-0.635,3.728
			c-0.004,0.367,0.134,0.588,0.305,0.63c0.615,0.151,1.181-0.52,1.741-0.94c0.619-0.464,1.226-0.999,1.834-1.524
			c0.305-0.263,0.621-0.58,0.944-0.838c0.341,0.04,0.681,0.101,1.022,0.164c0.265,0.049,0.53,0.092,0.796,0.137
			c0.072,0.251,0.107,0.54,0.122,0.892c0.055,1.359-0.161,2.709-0.157,4.069c0.002,0.605,0.039,1.247,0.243,1.716
			c0.159,0.366,0.394,0.581,0.626,0.711c0.576,0.325,1.214,0.273,1.81,0.206c0.628-0.07,1.26-0.264,1.888-0.259
			c0.178,0.001,0.309-0.28,0.325-0.619c0.079-1.664,0.217-3.315,0.27-4.983c0.016-0.503,0.025-1.007,0.022-1.511
			c0.724-0.027,1.461-0.011,2.163,0.272c0.47,0.19,0.927,0.525,1.392,0.781c0.269,0.412,0.535,0.83,0.825,1.187
			c0.415,0.51,0.899,1.026,1.409,0.879c0.129-0.037,0.244-0.349,0.241-0.599C78.756,332.198,78.523,331.526,78.337,330.833z"/>
		<path style="fill:#1D1D1B;" d="M373.746,315.612c-0.231-0.862-0.463-1.718-0.719-2.551c-0.248-0.808-0.509-1.599-0.797-2.352
			c-0.137-0.358-0.28-0.707-0.427-1.049c-0.101-0.234-0.207-0.431-0.32-0.618c-0.086-0.292-0.172-0.586-0.258-0.877
			c0.046,0.037,0.09,0.082,0.136,0.118c0.314,0.241,0.715,0.526,1.055,0.271c0.174-0.131,0.257-0.4,0.233-0.765
			c-0.032-0.481-0.151-0.911-0.28-1.311c-0.13-0.403-0.248-0.802-0.355-1.232c-0.237-0.945-0.459-1.909-0.725-2.823
			c-0.475-1.631-1.044-3.159-1.36-4.96c0.086,0.164,0.174,0.327,0.265,0.481c0.235,0.396,0.481,0.734,0.775,0.939
			c0.189,0.132,0.405-0.206,0.407-0.593c0.004-0.92-0.214-1.781-0.437-2.553c-0.225-0.778-0.472-1.531-0.706-2.298
			c-0.251-0.824-0.587-1.534-0.884-2.291c-0.274-0.698-0.612-1.571-0.648-2.492c0-0.007-0.002-0.012-0.003-0.019
			c0.081,0.05,0.163,0.092,0.242,0.144c0.183,0.121,0.354,0.296,0.521,0.481c0.331,0.366,0.642,0.796,0.98,1.138
			c0.245,0.248,0.522-0.147,0.472-0.694c-0.081-0.871-0.334-1.612-0.541-2.374c-0.232-0.855-0.425-1.754-0.654-2.613
			c-0.435-1.634-0.798-3.338-1.238-4.966c0.011,0.021,0.019,0.046,0.03,0.066c0.151,0.292,0.318,0.556,0.483,0.819
			c0.318,0.51,0.642,1.011,0.966,1.506c0.193,0.295,0.455-0.181,0.406-0.597c-0.204-1.748-0.634-3.292-1.09-4.814
			c-0.234-0.78-0.448-1.576-0.665-2.375c-0.15-0.551-0.371-1.039-0.518-1.597c0.027,0.04,0.054,0.082,0.081,0.121
			c0.243,0.353,0.511,0.638,0.798,0.827c0.169,0.111,0.365-0.179,0.365-0.532c0.001-1.425-0.452-2.702-0.723-3.962
			c-0.222-1.035-0.513-2.019-0.741-3.053c0.187,0.298,0.382,0.584,0.592,0.81c0.188,0.202,0.504-0.134,0.416-0.612
			c-0.341-1.851-0.559-3.796-1.023-5.547c-0.236-0.891-0.464-1.779-0.676-2.694c-0.105-0.453-0.204-0.912-0.313-1.361
			c-0.104-0.428-0.205-0.962-0.38-1.291c-0.014-0.026-0.031-0.044-0.049-0.058c-0.006-0.23-0.189-0.314-0.267-0.103
			c-0.327,0.885-0.55,1.804-0.75,2.824c-0.194,0.992-0.344,2.031-0.569,2.997c-0.374,1.603-0.945,3.053-1.232,4.727
			c-0.171,0.495-0.335,0.999-0.492,1.51c-0.414,1.35-0.777,2.758-1.16,4.141c-0.144,0.521,0.131,1.218,0.417,0.862
			c0.418-0.522,0.759-1.184,1.067-1.921c-0.076,0.484-0.15,0.97-0.23,1.452c-0.042,0.114-0.083,0.229-0.126,0.343
			c-0.337,0.911-0.69,1.801-0.994,2.758c-0.598,1.882-1.358,3.756-1.664,5.917c-0.05,0.351,0.078,0.843,0.29,0.795
			c0.466-0.104,0.808-0.883,1.114-1.532c0.163-0.346,0.335-0.671,0.51-0.99c-0.167,0.686-0.338,1.37-0.501,2.057
			c-0.137,0.575-0.28,1.151-0.424,1.73c-0.266,0.854-0.533,1.707-0.791,2.572c-0.345,1.159-0.692,2.294-1.069,3.414
			c-0.36,1.069-0.722,2.199-0.891,3.446c-0.072,0.529,0.201,0.97,0.448,0.709c0.817-0.861,1.615-1.821,2.34-2.972
			c-0.004,0.019-0.009,0.039-0.013,0.058c-0.077,0.233-0.153,0.466-0.227,0.701c-0.342,1.072-0.629,2.23-0.911,3.366
			c-0.523,2.107-0.929,4.287-1.73,6.074c-0.319,0.711-0.753,1.547-0.791,2.544c-0.012,0.309,0.139,0.663,0.303,0.628
			c0.73-0.155,1.354-1.01,1.927-1.891c-0.156,0.524-0.31,1.051-0.466,1.573c-0.336,1.123-0.658,2.263-0.982,3.4
			c-0.325,1.143-0.618,2.318-0.89,3.512c-0.268,1.176-0.464,2.387-0.699,3.585c-0.246,1.251-0.621,2.35-0.635,3.728
			c-0.004,0.367,0.134,0.588,0.305,0.63c0.615,0.151,1.18-0.519,1.741-0.94c0.619-0.464,1.227-0.999,1.834-1.524
			c0.305-0.263,0.621-0.58,0.944-0.838c0.341,0.04,0.681,0.101,1.022,0.164c0.265,0.049,0.53,0.092,0.796,0.137
			c0.072,0.251,0.108,0.54,0.122,0.892c0.056,1.359-0.161,2.709-0.157,4.069c0.002,0.605,0.039,1.247,0.243,1.716
			c0.159,0.366,0.395,0.581,0.626,0.711c0.576,0.325,1.214,0.273,1.811,0.206c0.628-0.07,1.26-0.264,1.888-0.259
			c0.178,0.001,0.309-0.28,0.325-0.619c0.079-1.664,0.217-3.315,0.27-4.983c0.016-0.503,0.025-1.007,0.022-1.511
			c0.724-0.027,1.461-0.011,2.163,0.272c0.47,0.19,0.927,0.525,1.392,0.781c0.269,0.412,0.535,0.83,0.825,1.187
			c0.415,0.511,0.899,1.027,1.409,0.88c0.129-0.037,0.244-0.349,0.241-0.599C374.164,316.977,373.931,316.305,373.746,315.612z"/>
		<path style="fill:#1D1D1B;" d="M94.124,324.642c-0.237-0.484-0.475-0.965-0.737-1.433c-0.254-0.454-0.521-0.898-0.814-1.322
			c-0.14-0.202-0.285-0.398-0.435-0.59c-0.102-0.132-0.211-0.243-0.324-0.348c-0.088-0.164-0.176-0.329-0.265-0.493
			c0.046,0.021,0.091,0.047,0.137,0.067c0.316,0.137,0.719,0.299,1.057,0.159c0.173-0.072,0.254-0.222,0.227-0.427
			c-0.035-0.269-0.158-0.511-0.29-0.736c-0.133-0.226-0.254-0.451-0.364-0.692c-0.244-0.531-0.473-1.072-0.746-1.585
			c-0.487-0.916-1.067-1.776-1.396-2.786c0.088,0.093,0.176,0.185,0.268,0.271c0.238,0.223,0.486,0.414,0.782,0.531
			c0.19,0.075,0.403-0.112,0.402-0.329c-0.002-0.515-0.227-0.998-0.456-1.432c-0.23-0.437-0.483-0.861-0.723-1.291
			c-0.257-0.463-0.598-0.863-0.901-1.289c-0.279-0.393-0.623-0.884-0.666-1.399c0-0.004-0.002-0.007-0.003-0.011
			c0.081,0.029,0.164,0.053,0.243,0.082c0.184,0.069,0.356,0.168,0.525,0.273c0.333,0.207,0.648,0.45,0.988,0.644
			c0.246,0.14,0.521-0.079,0.466-0.385c-0.087-0.488-0.346-0.905-0.558-1.333c-0.238-0.48-0.437-0.985-0.672-1.467
			c-0.447-0.918-0.823-1.874-1.274-2.789c0.011,0.012,0.02,0.026,0.03,0.037c0.154,0.164,0.323,0.314,0.489,0.462
			c0.322,0.288,0.649,0.57,0.977,0.85c0.195,0.166,0.453-0.098,0.402-0.331c-0.216-0.98-0.658-1.847-1.125-2.702
			c-0.239-0.438-0.459-0.885-0.682-1.334c-0.154-0.309-0.379-0.584-0.53-0.897c0.028,0.023,0.055,0.047,0.082,0.069
			c0.246,0.199,0.516,0.361,0.805,0.469c0.17,0.064,0.363-0.098,0.361-0.295c-0.01-0.798-0.472-1.516-0.751-2.223
			c-0.23-0.581-0.528-1.134-0.763-1.714c0.189,0.169,0.386,0.33,0.598,0.458c0.189,0.115,0.503-0.071,0.412-0.34
			c-0.355-1.038-0.586-2.129-1.063-3.112c-0.242-0.5-0.477-0.999-0.696-1.513c-0.108-0.254-0.211-0.512-0.323-0.764
			c-0.107-0.24-0.212-0.54-0.39-0.725c-0.014-0.015-0.031-0.025-0.049-0.033c-0.008-0.129-0.191-0.177-0.267-0.06
			c-0.321,0.493-0.537,1.006-0.729,1.575c-0.187,0.554-0.329,1.134-0.547,1.673c-0.362,0.895-0.922,1.702-1.198,2.637
			c-0.167,0.276-0.327,0.557-0.48,0.842c-0.404,0.752-0.757,1.538-1.13,2.309c-0.14,0.29,0.14,0.683,0.423,0.486
			c0.414-0.289,0.751-0.657,1.053-1.068c-0.073,0.271-0.143,0.542-0.22,0.811c-0.041,0.064-0.082,0.128-0.123,0.191
			c-0.331,0.507-0.677,1.003-0.974,1.537c-0.584,1.049-1.33,2.092-1.62,3.299c-0.047,0.196,0.084,0.472,0.296,0.447
			c0.465-0.055,0.802-0.488,1.103-0.849c0.16-0.192,0.33-0.373,0.503-0.55c-0.162,0.383-0.328,0.764-0.486,1.148
			c-0.132,0.321-0.271,0.642-0.411,0.965c-0.26,0.476-0.521,0.952-0.772,1.433c-0.337,0.646-0.675,1.279-1.044,1.903
			c-0.352,0.596-0.706,1.225-0.866,1.922c-0.068,0.296,0.208,0.544,0.453,0.4c0.811-0.476,1.601-1.008,2.318-1.646
			c-0.004,0.011-0.008,0.022-0.013,0.032c-0.075,0.13-0.149,0.26-0.222,0.391c-0.334,0.598-0.613,1.243-0.886,1.877
			c-0.508,1.176-0.898,2.393-1.686,3.387c-0.313,0.396-0.741,0.86-0.772,1.418c-0.01,0.172,0.144,0.372,0.308,0.353
			c0.729-0.082,1.347-0.556,1.913-1.044c-0.152,0.292-0.302,0.586-0.454,0.877c-0.327,0.626-0.642,1.262-0.957,1.896
			c-0.317,0.637-0.601,1.293-0.864,1.959c-0.259,0.656-0.447,1.333-0.673,2.002c-0.236,0.698-0.604,1.311-0.608,2.082
			c-0.001,0.205,0.138,0.33,0.309,0.355c0.616,0.089,1.177-0.282,1.734-0.513c0.616-0.255,1.219-0.55,1.822-0.839
			c0.303-0.145,0.617-0.32,0.938-0.462c0.342,0.025,0.682,0.062,1.023,0.1c0.265,0.029,0.531,0.055,0.797,0.082
			c0.074,0.141,0.111,0.303,0.128,0.5c0.065,0.761-0.141,1.515-0.127,2.276c0.006,0.339,0.049,0.698,0.256,0.963
			c0.161,0.206,0.399,0.328,0.631,0.402c0.578,0.186,1.216,0.161,1.812,0.129c0.627-0.035,1.258-0.139,1.886-0.131
			c0.178,0.002,0.307-0.155,0.32-0.344c0.067-0.931,0.193-1.854,0.233-2.787c0.012-0.281,0.018-0.564,0.011-0.845
			c0.724-0.01,1.461,0.005,2.164,0.168c0.472,0.11,0.931,0.301,1.397,0.447c0.272,0.233,0.541,0.469,0.834,0.67
			c0.419,0.289,0.907,0.581,1.416,0.503c0.129-0.02,0.241-0.194,0.237-0.333C94.552,325.408,94.315,325.031,94.124,324.642z"/>
		<path style="fill:#1D1D1B;" d="M390.958,302.888c-0.235-0.641-0.47-1.279-0.73-1.899c-0.252-0.601-0.516-1.191-0.807-1.752
			c-0.138-0.267-0.283-0.527-0.432-0.781c-0.102-0.174-0.209-0.321-0.323-0.461c-0.087-0.218-0.174-0.436-0.262-0.653
			c0.046,0.028,0.09,0.062,0.137,0.088c0.315,0.18,0.717,0.394,1.056,0.206c0.173-0.096,0.255-0.296,0.229-0.568
			c-0.034-0.358-0.155-0.678-0.286-0.976c-0.132-0.3-0.251-0.598-0.361-0.917c-0.241-0.704-0.467-1.421-0.737-2.101
			c-0.482-1.214-1.058-2.353-1.381-3.693c0.087,0.123,0.175,0.244,0.267,0.358c0.237,0.295,0.484,0.547,0.779,0.701
			c0.19,0.099,0.404-0.152,0.404-0.439c0-0.684-0.222-1.325-0.448-1.9c-0.228-0.579-0.479-1.14-0.716-1.711
			c-0.255-0.614-0.593-1.143-0.894-1.707c-0.277-0.52-0.618-1.17-0.659-1.855c0-0.005-0.002-0.009-0.003-0.014
			c0.081,0.037,0.164,0.069,0.242,0.108c0.183,0.091,0.355,0.221,0.523,0.36c0.332,0.274,0.646,0.594,0.985,0.85
			c0.246,0.185,0.522-0.107,0.469-0.514c-0.085-0.647-0.341-1.2-0.551-1.767c-0.236-0.637-0.432-1.306-0.665-1.946
			c-0.442-1.216-0.813-2.485-1.259-3.697c0.011,0.016,0.02,0.034,0.03,0.049c0.153,0.217,0.321,0.415,0.486,0.611
			c0.32,0.381,0.646,0.754,0.972,1.124c0.194,0.22,0.454-0.133,0.404-0.442c-0.211-1.3-0.648-2.45-1.111-3.583
			c-0.237-0.581-0.455-1.173-0.675-1.768c-0.152-0.41-0.375-0.774-0.525-1.189c0.027,0.03,0.055,0.061,0.082,0.091
			c0.245,0.263,0.514,0.476,0.802,0.618c0.17,0.083,0.364-0.132,0.363-0.394c-0.005-1.059-0.463-2.011-0.739-2.948
			c-0.227-0.77-0.522-1.503-0.754-2.272c0.188,0.223,0.384,0.436,0.596,0.605c0.189,0.151,0.504-0.097,0.414-0.453
			c-0.349-1.377-0.575-2.824-1.046-4.128c-0.24-0.663-0.471-1.324-0.688-2.006c-0.107-0.337-0.208-0.679-0.319-1.013
			c-0.105-0.319-0.209-0.716-0.386-0.961c-0.014-0.019-0.031-0.033-0.049-0.043c-0.007-0.171-0.19-0.234-0.267-0.078
			c-0.324,0.656-0.543,1.339-0.738,2.096c-0.19,0.736-0.335,1.508-0.556,2.226c-0.367,1.19-0.931,2.265-1.212,3.508
			c-0.169,0.367-0.33,0.741-0.485,1.121c-0.408,1.001-0.765,2.047-1.142,3.073c-0.142,0.386,0.136,0.906,0.42,0.642
			c0.416-0.386,0.754-0.877,1.059-1.424c-0.074,0.36-0.146,0.721-0.224,1.078c-0.042,0.085-0.082,0.17-0.124,0.255
			c-0.334,0.676-0.682,1.336-0.982,2.046c-0.59,1.396-1.342,2.786-1.638,4.391c-0.048,0.261,0.081,0.627,0.294,0.592
			c0.466-0.075,0.805-0.653,1.107-1.134c0.162-0.256,0.332-0.497,0.506-0.733c-0.164,0.51-0.332,1.017-0.492,1.527
			c-0.134,0.427-0.275,0.855-0.416,1.284c-0.262,0.634-0.526,1.267-0.78,1.908c-0.34,0.86-0.682,1.702-1.054,2.533
			c-0.356,0.793-0.712,1.632-0.876,2.557c-0.07,0.393,0.205,0.722,0.451,0.529c0.814-0.637,1.607-1.347,2.327-2.199
			c-0.004,0.014-0.008,0.029-0.013,0.043c-0.076,0.173-0.151,0.346-0.225,0.52c-0.337,0.796-0.62,1.655-0.897,2.498
			c-0.514,1.564-0.911,3.183-1.704,4.507c-0.316,0.527-0.746,1.147-0.78,1.888c-0.01,0.229,0.142,0.493,0.306,0.468
			c0.73-0.112,1.35-0.745,1.918-1.397c-0.154,0.389-0.305,0.78-0.459,1.167c-0.331,0.834-0.648,1.68-0.967,2.523
			c-0.32,0.848-0.608,1.72-0.875,2.607c-0.263,0.873-0.454,1.773-0.684,2.662c-0.24,0.929-0.611,1.744-0.619,2.769
			c-0.002,0.273,0.136,0.438,0.307,0.47c0.616,0.115,1.178-0.381,1.737-0.691c0.617-0.343,1.222-0.737,1.827-1.125
			c0.304-0.195,0.618-0.428,0.94-0.619c0.341,0.032,0.682,0.078,1.022,0.127c0.265,0.038,0.531,0.07,0.796,0.105
			c0.073,0.187,0.11,0.402,0.126,0.663c0.061,1.01-0.15,2.013-0.14,3.024c0.004,0.45,0.045,0.927,0.25,1.277
			c0.16,0.273,0.397,0.433,0.629,0.531c0.578,0.244,1.215,0.208,1.811,0.161c0.628-0.049,1.258-0.191,1.887-0.184
			c0.178,0.002,0.307-0.207,0.322-0.459c0.072-1.236,0.203-2.463,0.249-3.703c0.014-0.374,0.021-0.749,0.016-1.123
			c0.724-0.017,1.461-0.002,2.164,0.212c0.471,0.143,0.929,0.394,1.395,0.586c0.27,0.308,0.539,0.619,0.83,0.886
			c0.417,0.381,0.904,0.767,1.413,0.66c0.129-0.027,0.243-0.259,0.239-0.444C391.382,303.905,391.146,303.404,390.958,302.888z"/>
		<path style="fill:#1D1D1B;" d="M456.248,351.858c-0.235-0.641-0.47-1.279-0.73-1.899c-0.252-0.601-0.516-1.191-0.807-1.752
			c-0.138-0.267-0.283-0.527-0.432-0.781c-0.102-0.174-0.209-0.321-0.322-0.461c-0.088-0.218-0.174-0.436-0.262-0.653
			c0.046,0.028,0.09,0.061,0.137,0.088c0.315,0.18,0.717,0.394,1.056,0.206c0.173-0.096,0.255-0.296,0.229-0.568
			c-0.034-0.358-0.155-0.678-0.286-0.976c-0.132-0.3-0.251-0.598-0.361-0.917c-0.241-0.704-0.467-1.421-0.737-2.101
			c-0.482-1.214-1.058-2.353-1.381-3.693c0.087,0.123,0.175,0.244,0.267,0.359c0.237,0.295,0.484,0.547,0.779,0.701
			c0.19,0.099,0.404-0.152,0.404-0.439c0-0.684-0.222-1.325-0.448-1.9c-0.228-0.579-0.479-1.14-0.716-1.711
			c-0.255-0.614-0.593-1.143-0.894-1.707c-0.277-0.52-0.618-1.17-0.659-1.855c0-0.005-0.002-0.009-0.003-0.014
			c0.081,0.037,0.164,0.069,0.242,0.108c0.183,0.091,0.355,0.221,0.523,0.36c0.332,0.274,0.646,0.594,0.985,0.85
			c0.246,0.185,0.522-0.108,0.469-0.514c-0.084-0.647-0.341-1.2-0.551-1.767c-0.236-0.637-0.432-1.306-0.665-1.945
			c-0.442-1.216-0.812-2.485-1.259-3.697c0.011,0.016,0.02,0.034,0.03,0.049c0.153,0.217,0.321,0.415,0.486,0.611
			c0.32,0.381,0.646,0.754,0.973,1.124c0.194,0.22,0.454-0.133,0.403-0.442c-0.211-1.3-0.648-2.449-1.111-3.583
			c-0.237-0.581-0.455-1.174-0.675-1.768c-0.152-0.41-0.375-0.774-0.525-1.189c0.027,0.03,0.055,0.062,0.082,0.091
			c0.245,0.263,0.514,0.476,0.802,0.618c0.17,0.083,0.364-0.132,0.363-0.394c-0.005-1.06-0.463-2.011-0.739-2.949
			c-0.227-0.77-0.522-1.503-0.754-2.272c0.188,0.223,0.384,0.436,0.596,0.605c0.189,0.151,0.504-0.098,0.413-0.453
			c-0.349-1.377-0.575-2.824-1.046-4.128c-0.24-0.663-0.471-1.324-0.688-2.006c-0.107-0.337-0.208-0.679-0.319-1.013
			c-0.105-0.319-0.209-0.716-0.386-0.961c-0.014-0.019-0.031-0.033-0.049-0.043c-0.007-0.171-0.19-0.234-0.267-0.078
			c-0.324,0.657-0.543,1.339-0.738,2.096c-0.19,0.736-0.335,1.508-0.556,2.226c-0.367,1.19-0.932,2.265-1.212,3.509
			c-0.169,0.367-0.33,0.741-0.485,1.121c-0.408,1.001-0.765,2.047-1.142,3.073c-0.142,0.386,0.136,0.906,0.42,0.642
			c0.416-0.386,0.754-0.877,1.059-1.424c-0.074,0.36-0.146,0.721-0.224,1.078c-0.042,0.085-0.082,0.17-0.124,0.255
			c-0.333,0.676-0.682,1.336-0.982,2.046c-0.59,1.396-1.342,2.786-1.638,4.391c-0.048,0.261,0.081,0.627,0.294,0.592
			c0.466-0.075,0.805-0.653,1.107-1.134c0.162-0.256,0.332-0.497,0.506-0.733c-0.164,0.51-0.332,1.017-0.492,1.527
			c-0.134,0.427-0.275,0.855-0.416,1.284c-0.262,0.634-0.526,1.267-0.78,1.908c-0.34,0.86-0.682,1.702-1.055,2.533
			c-0.356,0.793-0.712,1.632-0.876,2.557c-0.07,0.393,0.205,0.722,0.451,0.529c0.814-0.637,1.607-1.347,2.327-2.199
			c-0.004,0.014-0.008,0.029-0.013,0.043c-0.076,0.173-0.151,0.346-0.224,0.52c-0.337,0.796-0.62,1.655-0.897,2.498
			c-0.514,1.564-0.911,3.183-1.704,4.507c-0.316,0.527-0.746,1.147-0.78,1.888c-0.011,0.229,0.142,0.493,0.306,0.468
			c0.729-0.112,1.35-0.745,1.918-1.397c-0.154,0.389-0.305,0.78-0.459,1.167c-0.331,0.834-0.648,1.68-0.967,2.523
			c-0.32,0.848-0.608,1.72-0.875,2.607c-0.263,0.873-0.454,1.773-0.684,2.662c-0.24,0.929-0.611,1.744-0.619,2.769
			c-0.002,0.272,0.136,0.438,0.307,0.47c0.615,0.115,1.178-0.381,1.737-0.691c0.617-0.343,1.222-0.737,1.827-1.125
			c0.304-0.195,0.618-0.428,0.94-0.619c0.341,0.032,0.682,0.078,1.022,0.127c0.265,0.038,0.531,0.07,0.796,0.105
			c0.073,0.187,0.11,0.402,0.126,0.663c0.061,1.01-0.15,2.013-0.14,3.024c0.004,0.45,0.045,0.927,0.25,1.277
			c0.16,0.273,0.397,0.433,0.629,0.531c0.577,0.244,1.215,0.208,1.811,0.161c0.628-0.049,1.258-0.191,1.887-0.184
			c0.178,0.002,0.307-0.207,0.322-0.459c0.072-1.236,0.203-2.463,0.249-3.703c0.014-0.373,0.021-0.749,0.016-1.123
			c0.724-0.017,1.461-0.002,2.164,0.212c0.471,0.143,0.93,0.394,1.395,0.586c0.271,0.308,0.539,0.619,0.831,0.886
			c0.417,0.381,0.903,0.767,1.413,0.66c0.129-0.027,0.243-0.259,0.239-0.444C456.673,352.874,456.437,352.374,456.248,351.858z"/>
		<path style="fill:#1D1D1B;" d="M142.572,293.681c-0.231-0.872-0.462-1.739-0.718-2.582c-0.248-0.818-0.509-1.619-0.797-2.381
			c-0.137-0.363-0.28-0.716-0.427-1.062c-0.101-0.237-0.207-0.436-0.32-0.626c-0.086-0.296-0.172-0.593-0.258-0.888
			c0.046,0.038,0.09,0.083,0.136,0.119c0.314,0.243,0.715,0.532,1.055,0.274c0.174-0.132,0.257-0.405,0.233-0.775
			c-0.032-0.487-0.151-0.923-0.28-1.327c-0.13-0.408-0.248-0.813-0.355-1.247c-0.237-0.957-0.459-1.933-0.725-2.858
			c-0.475-1.651-1.044-3.198-1.359-5.021c0.086,0.167,0.174,0.331,0.265,0.487c0.235,0.401,0.481,0.743,0.775,0.95
			c0.189,0.134,0.405-0.209,0.407-0.601c0.005-0.932-0.214-1.803-0.437-2.585c-0.224-0.787-0.472-1.55-0.705-2.327
			c-0.251-0.834-0.586-1.553-0.883-2.319c-0.274-0.707-0.611-1.59-0.648-2.523c0-0.007-0.002-0.012-0.003-0.02
			c0.081,0.05,0.163,0.093,0.242,0.145c0.183,0.122,0.354,0.299,0.521,0.487c0.331,0.371,0.642,0.806,0.98,1.152
			c0.245,0.251,0.522-0.15,0.472-0.703c-0.081-0.881-0.334-1.632-0.54-2.404c-0.232-0.866-0.424-1.776-0.653-2.646
			c-0.435-1.654-0.798-3.38-1.237-5.028c0.011,0.021,0.019,0.046,0.03,0.067c0.151,0.295,0.318,0.563,0.482,0.829
			c0.318,0.516,0.642,1.023,0.966,1.525c0.193,0.298,0.455-0.184,0.406-0.605c-0.203-1.769-0.633-3.332-1.089-4.873
			c-0.234-0.79-0.448-1.596-0.665-2.404c-0.15-0.557-0.371-1.052-0.518-1.617c0.027,0.041,0.054,0.083,0.081,0.123
			c0.243,0.357,0.511,0.646,0.798,0.837c0.169,0.113,0.365-0.182,0.365-0.539c0.001-1.443-0.451-2.736-0.722-4.011
			c-0.222-1.048-0.513-2.044-0.74-3.091c0.187,0.302,0.382,0.591,0.592,0.82c0.188,0.204,0.504-0.136,0.416-0.62
			c-0.341-1.874-0.558-3.843-1.021-5.616c-0.236-0.902-0.464-1.801-0.675-2.728c-0.105-0.459-0.204-0.923-0.313-1.378
			c-0.103-0.433-0.204-0.974-0.38-1.307c-0.014-0.026-0.031-0.044-0.049-0.058c-0.006-0.233-0.189-0.317-0.267-0.104
			c-0.328,0.896-0.551,1.827-0.751,2.859c-0.194,1.004-0.344,2.056-0.57,3.035c-0.374,1.623-0.945,3.091-1.233,4.786
			c-0.171,0.501-0.335,1.012-0.492,1.529c-0.414,1.367-0.778,2.793-1.161,4.193c-0.144,0.527,0.131,1.234,0.417,0.873
			c0.418-0.528,0.76-1.199,1.068-1.945c-0.076,0.491-0.15,0.982-0.231,1.47c-0.042,0.116-0.083,0.232-0.126,0.348
			c-0.338,0.923-0.69,1.824-0.995,2.793c-0.598,1.905-1.359,3.803-1.665,5.991c-0.05,0.356,0.078,0.853,0.29,0.805
			c0.466-0.105,0.809-0.894,1.114-1.551c0.163-0.35,0.335-0.679,0.511-1.002c-0.167,0.695-0.338,1.387-0.501,2.083
			c-0.137,0.582-0.28,1.166-0.424,1.752c-0.266,0.865-0.534,1.729-0.791,2.604c-0.345,1.173-0.692,2.323-1.07,3.457
			c-0.36,1.082-0.722,2.227-0.892,3.489c-0.072,0.536,0.2,0.982,0.448,0.718c0.818-0.872,1.615-1.844,2.341-3.01
			c-0.005,0.019-0.009,0.039-0.013,0.058c-0.077,0.236-0.153,0.472-0.228,0.71c-0.342,1.086-0.63,2.258-0.912,3.408
			c-0.523,2.134-0.93,4.341-1.731,6.15c-0.319,0.72-0.753,1.566-0.791,2.576c-0.012,0.312,0.139,0.671,0.303,0.635
			c0.73-0.157,1.354-1.023,1.927-1.915c-0.156,0.531-0.31,1.064-0.466,1.592c-0.336,1.138-0.659,2.292-0.982,3.443
			c-0.325,1.157-0.619,2.347-0.891,3.556c-0.268,1.191-0.464,2.417-0.7,3.63c-0.246,1.267-0.621,2.379-0.636,3.775
			c-0.004,0.371,0.134,0.596,0.304,0.638c0.615,0.153,1.181-0.526,1.741-0.952c0.619-0.47,1.227-1.012,1.834-1.543
			c0.305-0.267,0.621-0.587,0.944-0.849c0.341,0.041,0.681,0.103,1.022,0.166c0.265,0.05,0.53,0.093,0.796,0.138
			c0.072,0.254,0.107,0.547,0.122,0.903c0.055,1.376-0.162,2.743-0.158,4.12c0.002,0.613,0.039,1.263,0.243,1.738
			c0.159,0.37,0.394,0.588,0.626,0.72c0.576,0.329,1.214,0.276,1.811,0.208c0.628-0.071,1.26-0.268,1.888-0.262
			c0.178,0.001,0.309-0.284,0.325-0.626c0.08-1.685,0.218-3.356,0.271-5.046c0.016-0.509,0.025-1.02,0.023-1.53
			c0.724-0.028,1.461-0.011,2.163,0.275c0.47,0.192,0.927,0.532,1.392,0.79c0.269,0.417,0.535,0.84,0.825,1.202
			c0.415,0.517,0.899,1.039,1.409,0.89c0.129-0.038,0.244-0.354,0.241-0.606C142.99,295.062,142.758,294.382,142.572,293.681z"/>
		<path style="fill:#1D1D1B;" d="M123.626,321.155c-0.231-0.872-0.462-1.739-0.718-2.582c-0.248-0.818-0.509-1.619-0.797-2.382
			c-0.137-0.363-0.28-0.716-0.427-1.062c-0.101-0.237-0.207-0.436-0.32-0.626c-0.086-0.296-0.172-0.593-0.258-0.888
			c0.046,0.038,0.09,0.083,0.136,0.119c0.314,0.244,0.715,0.532,1.055,0.274c0.174-0.132,0.257-0.405,0.233-0.775
			c-0.032-0.487-0.151-0.923-0.28-1.327c-0.13-0.408-0.248-0.813-0.355-1.247c-0.237-0.957-0.459-1.933-0.725-2.858
			c-0.475-1.651-1.044-3.198-1.359-5.021c0.086,0.167,0.174,0.331,0.265,0.487c0.235,0.401,0.48,0.743,0.775,0.95
			c0.189,0.134,0.405-0.209,0.407-0.6c0.005-0.932-0.214-1.803-0.437-2.585c-0.224-0.788-0.472-1.55-0.705-2.327
			c-0.251-0.834-0.586-1.553-0.884-2.319c-0.274-0.707-0.611-1.59-0.648-2.523c0-0.007-0.002-0.012-0.003-0.02
			c0.081,0.05,0.163,0.093,0.242,0.145c0.183,0.122,0.354,0.299,0.521,0.487c0.33,0.371,0.642,0.806,0.98,1.152
			c0.244,0.251,0.522-0.149,0.472-0.703c-0.081-0.881-0.334-1.632-0.54-2.404c-0.232-0.866-0.424-1.776-0.653-2.646
			c-0.435-1.654-0.798-3.38-1.237-5.028c0.011,0.021,0.019,0.046,0.03,0.067c0.151,0.295,0.318,0.563,0.482,0.829
			c0.318,0.517,0.642,1.023,0.966,1.525c0.193,0.298,0.455-0.183,0.406-0.605c-0.203-1.769-0.633-3.332-1.089-4.873
			c-0.234-0.79-0.448-1.596-0.665-2.404c-0.15-0.557-0.371-1.052-0.518-1.617c0.027,0.041,0.054,0.083,0.081,0.123
			c0.243,0.357,0.511,0.646,0.798,0.837c0.169,0.113,0.365-0.182,0.365-0.539c0.001-1.443-0.451-2.736-0.722-4.012
			c-0.222-1.048-0.513-2.044-0.74-3.091c0.187,0.302,0.381,0.591,0.592,0.82c0.188,0.205,0.504-0.136,0.416-0.62
			c-0.341-1.874-0.558-3.843-1.021-5.616c-0.236-0.902-0.464-1.801-0.676-2.728c-0.105-0.459-0.204-0.923-0.313-1.378
			c-0.103-0.434-0.204-0.974-0.38-1.307c-0.014-0.026-0.031-0.044-0.049-0.058c-0.006-0.233-0.189-0.318-0.267-0.104
			c-0.328,0.896-0.551,1.827-0.751,2.859c-0.194,1.004-0.344,2.056-0.57,3.035c-0.374,1.623-0.945,3.091-1.233,4.786
			c-0.171,0.501-0.335,1.012-0.492,1.53c-0.414,1.366-0.778,2.792-1.161,4.193c-0.144,0.527,0.131,1.233,0.416,0.873
			c0.418-0.528,0.76-1.199,1.068-1.946c-0.076,0.491-0.15,0.983-0.231,1.47c-0.042,0.116-0.084,0.232-0.126,0.348
			c-0.338,0.923-0.69,1.824-0.994,2.793c-0.598,1.905-1.359,3.803-1.665,5.991c-0.05,0.356,0.078,0.853,0.29,0.805
			c0.466-0.105,0.809-0.894,1.114-1.551c0.163-0.35,0.335-0.679,0.511-1.002c-0.167,0.695-0.338,1.387-0.501,2.083
			c-0.137,0.582-0.28,1.166-0.424,1.752c-0.266,0.865-0.534,1.729-0.791,2.604c-0.345,1.173-0.692,2.323-1.07,3.457
			c-0.36,1.082-0.722,2.226-0.892,3.489c-0.072,0.536,0.2,0.982,0.448,0.718c0.818-0.872,1.615-1.844,2.341-3.01
			c-0.004,0.019-0.009,0.039-0.013,0.058c-0.077,0.236-0.153,0.472-0.228,0.71c-0.342,1.086-0.63,2.258-0.912,3.408
			c-0.523,2.134-0.93,4.341-1.731,6.15c-0.319,0.72-0.753,1.566-0.791,2.576c-0.012,0.312,0.139,0.671,0.303,0.635
			c0.73-0.157,1.354-1.023,1.927-1.915c-0.156,0.531-0.31,1.064-0.466,1.592c-0.336,1.138-0.659,2.292-0.982,3.443
			c-0.325,1.157-0.619,2.347-0.891,3.556c-0.268,1.191-0.464,2.417-0.7,3.63c-0.246,1.267-0.621,2.379-0.636,3.775
			c-0.004,0.371,0.134,0.596,0.304,0.638c0.615,0.153,1.181-0.526,1.741-0.952c0.619-0.47,1.227-1.012,1.834-1.543
			c0.305-0.267,0.621-0.587,0.944-0.849c0.341,0.041,0.681,0.103,1.022,0.166c0.265,0.05,0.53,0.093,0.796,0.138
			c0.072,0.254,0.107,0.547,0.122,0.903c0.055,1.376-0.162,2.743-0.158,4.12c0.002,0.613,0.039,1.262,0.243,1.738
			c0.159,0.37,0.394,0.588,0.626,0.72c0.576,0.329,1.214,0.276,1.811,0.208c0.628-0.071,1.26-0.268,1.888-0.263
			c0.178,0.002,0.309-0.284,0.325-0.626c0.08-1.684,0.218-3.356,0.271-5.046c0.016-0.509,0.026-1.02,0.023-1.53
			c0.724-0.028,1.461-0.012,2.163,0.275c0.47,0.192,0.927,0.531,1.392,0.79c0.269,0.417,0.535,0.84,0.825,1.202
			c0.415,0.517,0.899,1.039,1.409,0.89c0.129-0.038,0.244-0.354,0.241-0.606C124.044,322.536,123.812,321.857,123.626,321.155z"/>
		<path style="fill:#1D1D1B;" d="M154.895,310.123c-0.231-0.872-0.462-1.739-0.718-2.583c-0.248-0.818-0.509-1.618-0.797-2.381
			c-0.137-0.363-0.28-0.716-0.427-1.062c-0.101-0.237-0.207-0.436-0.32-0.626c-0.086-0.296-0.172-0.593-0.258-0.888
			c0.046,0.038,0.09,0.083,0.136,0.119c0.314,0.244,0.715,0.532,1.055,0.274c0.174-0.132,0.257-0.405,0.233-0.775
			c-0.032-0.487-0.151-0.923-0.28-1.327c-0.13-0.408-0.248-0.813-0.355-1.247c-0.237-0.957-0.459-1.933-0.725-2.858
			c-0.475-1.651-1.044-3.198-1.359-5.021c0.086,0.167,0.174,0.331,0.265,0.487c0.235,0.401,0.481,0.743,0.775,0.95
			c0.189,0.134,0.405-0.209,0.407-0.6c0.005-0.932-0.214-1.803-0.437-2.585c-0.224-0.788-0.472-1.55-0.705-2.327
			c-0.251-0.834-0.586-1.553-0.883-2.319c-0.274-0.707-0.611-1.59-0.648-2.523c0-0.007-0.002-0.012-0.003-0.02
			c0.081,0.05,0.163,0.093,0.242,0.145c0.183,0.122,0.354,0.299,0.521,0.487c0.331,0.371,0.642,0.806,0.98,1.152
			c0.244,0.251,0.522-0.15,0.472-0.703c-0.081-0.881-0.334-1.632-0.54-2.404c-0.232-0.866-0.424-1.776-0.653-2.646
			c-0.435-1.654-0.798-3.38-1.237-5.028c0.011,0.021,0.019,0.046,0.03,0.067c0.151,0.295,0.318,0.563,0.482,0.829
			c0.318,0.516,0.642,1.023,0.966,1.525c0.193,0.298,0.455-0.183,0.406-0.605c-0.203-1.769-0.633-3.332-1.089-4.874
			c-0.234-0.79-0.448-1.596-0.665-2.404c-0.15-0.557-0.371-1.052-0.518-1.617c0.027,0.041,0.054,0.083,0.081,0.123
			c0.243,0.357,0.511,0.646,0.798,0.837c0.169,0.113,0.365-0.182,0.365-0.539c0.001-1.443-0.451-2.736-0.722-4.012
			c-0.222-1.048-0.513-2.044-0.74-3.091c0.187,0.302,0.382,0.591,0.592,0.82c0.188,0.205,0.504-0.136,0.416-0.62
			c-0.341-1.874-0.558-3.843-1.021-5.616c-0.236-0.902-0.464-1.801-0.676-2.728c-0.105-0.459-0.204-0.923-0.313-1.378
			c-0.103-0.434-0.204-0.974-0.38-1.307c-0.014-0.026-0.031-0.044-0.049-0.058c-0.006-0.233-0.189-0.318-0.266-0.104
			c-0.328,0.896-0.551,1.827-0.751,2.859c-0.194,1.004-0.344,2.056-0.57,3.035c-0.374,1.623-0.945,3.091-1.233,4.786
			c-0.171,0.501-0.335,1.012-0.492,1.53c-0.414,1.366-0.778,2.792-1.161,4.193c-0.144,0.527,0.131,1.234,0.417,0.873
			c0.418-0.528,0.76-1.199,1.068-1.945c-0.076,0.49-0.15,0.982-0.231,1.47c-0.042,0.116-0.083,0.232-0.126,0.348
			c-0.338,0.923-0.69,1.824-0.995,2.793c-0.598,1.905-1.359,3.803-1.665,5.991c-0.05,0.356,0.078,0.853,0.29,0.805
			c0.466-0.105,0.809-0.894,1.114-1.551c0.163-0.35,0.335-0.679,0.511-1.002c-0.167,0.695-0.338,1.387-0.501,2.083
			c-0.137,0.582-0.28,1.166-0.424,1.752c-0.266,0.865-0.534,1.728-0.791,2.604c-0.345,1.173-0.692,2.323-1.07,3.457
			c-0.36,1.082-0.722,2.227-0.892,3.489c-0.072,0.536,0.2,0.982,0.448,0.718c0.818-0.872,1.615-1.844,2.341-3.01
			c-0.005,0.019-0.009,0.039-0.013,0.058c-0.076,0.236-0.153,0.472-0.228,0.71c-0.342,1.086-0.63,2.258-0.912,3.408
			c-0.523,2.134-0.93,4.341-1.731,6.15c-0.319,0.72-0.753,1.566-0.791,2.576c-0.012,0.312,0.139,0.671,0.303,0.635
			c0.73-0.157,1.354-1.023,1.927-1.915c-0.156,0.531-0.31,1.064-0.466,1.592c-0.336,1.137-0.658,2.292-0.982,3.443
			c-0.325,1.157-0.619,2.347-0.891,3.556c-0.268,1.191-0.464,2.417-0.7,3.63c-0.246,1.267-0.622,2.379-0.636,3.775
			c-0.004,0.371,0.134,0.595,0.305,0.638c0.615,0.153,1.181-0.526,1.741-0.952c0.619-0.47,1.227-1.012,1.834-1.543
			c0.305-0.267,0.621-0.587,0.944-0.849c0.341,0.041,0.682,0.103,1.022,0.166c0.265,0.05,0.53,0.093,0.796,0.138
			c0.072,0.254,0.107,0.547,0.122,0.903c0.055,1.376-0.162,2.743-0.158,4.12c0.002,0.613,0.039,1.262,0.243,1.738
			c0.159,0.37,0.394,0.588,0.626,0.72c0.576,0.329,1.214,0.276,1.811,0.208c0.628-0.071,1.26-0.268,1.888-0.262
			c0.178,0.001,0.309-0.284,0.325-0.626c0.08-1.685,0.218-3.356,0.271-5.046c0.016-0.509,0.025-1.02,0.023-1.53
			c0.724-0.028,1.461-0.011,2.163,0.275c0.47,0.192,0.927,0.532,1.392,0.79c0.269,0.417,0.535,0.84,0.825,1.202
			c0.415,0.517,0.899,1.039,1.409,0.89c0.129-0.038,0.244-0.354,0.241-0.606C155.313,311.504,155.081,310.825,154.895,310.123z"/>
		<path style="fill:#1D1D1B;" d="M63.52,335.469c-0.237-0.484-0.475-0.965-0.737-1.433c-0.254-0.454-0.521-0.898-0.814-1.322
			c-0.14-0.201-0.285-0.398-0.435-0.59c-0.102-0.132-0.211-0.243-0.324-0.348c-0.088-0.164-0.176-0.329-0.265-0.493
			c0.046,0.021,0.091,0.047,0.137,0.067c0.316,0.137,0.719,0.299,1.057,0.159c0.173-0.072,0.254-0.222,0.227-0.426
			c-0.035-0.269-0.158-0.511-0.29-0.736c-0.133-0.226-0.254-0.451-0.364-0.692c-0.244-0.531-0.473-1.072-0.746-1.585
			c-0.487-0.916-1.067-1.776-1.396-2.786c0.088,0.093,0.176,0.184,0.268,0.271c0.238,0.223,0.486,0.414,0.782,0.531
			c0.19,0.075,0.403-0.112,0.402-0.329c-0.002-0.515-0.227-0.998-0.456-1.432c-0.23-0.437-0.483-0.861-0.723-1.291
			c-0.257-0.463-0.598-0.863-0.9-1.288c-0.279-0.393-0.623-0.884-0.666-1.399c0-0.004-0.002-0.007-0.003-0.011
			c0.081,0.028,0.164,0.053,0.243,0.082c0.184,0.069,0.356,0.168,0.525,0.273c0.333,0.208,0.648,0.45,0.988,0.644
			c0.246,0.14,0.521-0.079,0.467-0.385c-0.087-0.488-0.346-0.905-0.558-1.333c-0.238-0.48-0.437-0.985-0.673-1.467
			c-0.447-0.917-0.823-1.874-1.274-2.788c0.011,0.012,0.02,0.026,0.03,0.037c0.154,0.164,0.323,0.314,0.488,0.462
			c0.322,0.288,0.649,0.57,0.977,0.85c0.195,0.166,0.453-0.098,0.402-0.331c-0.217-0.98-0.658-1.847-1.125-2.702
			c-0.239-0.438-0.459-0.885-0.682-1.334c-0.154-0.309-0.379-0.584-0.53-0.898c0.028,0.023,0.055,0.047,0.082,0.069
			c0.246,0.199,0.515,0.361,0.805,0.469c0.17,0.063,0.363-0.098,0.361-0.295c-0.01-0.798-0.472-1.516-0.751-2.223
			c-0.23-0.581-0.528-1.134-0.763-1.714c0.189,0.168,0.386,0.33,0.598,0.458c0.189,0.114,0.503-0.071,0.412-0.34
			c-0.355-1.038-0.586-2.129-1.063-3.112c-0.242-0.5-0.477-0.999-0.696-1.513c-0.108-0.254-0.211-0.512-0.323-0.764
			c-0.107-0.24-0.212-0.54-0.39-0.725c-0.014-0.015-0.031-0.025-0.049-0.033c-0.008-0.129-0.191-0.177-0.267-0.06
			c-0.321,0.493-0.537,1.006-0.729,1.575c-0.187,0.554-0.329,1.134-0.547,1.673c-0.362,0.894-0.922,1.702-1.198,2.636
			c-0.167,0.276-0.327,0.557-0.48,0.842c-0.404,0.752-0.757,1.538-1.129,2.309c-0.14,0.29,0.14,0.683,0.423,0.486
			c0.414-0.289,0.751-0.657,1.053-1.068c-0.073,0.271-0.143,0.542-0.22,0.811c-0.041,0.064-0.082,0.128-0.123,0.191
			c-0.331,0.508-0.677,1.003-0.974,1.536c-0.584,1.049-1.33,2.092-1.62,3.299c-0.047,0.196,0.084,0.472,0.296,0.447
			c0.465-0.055,0.802-0.488,1.103-0.849c0.16-0.192,0.33-0.373,0.503-0.55c-0.162,0.383-0.328,0.764-0.486,1.148
			c-0.132,0.321-0.271,0.642-0.411,0.965c-0.26,0.476-0.521,0.952-0.772,1.434c-0.336,0.646-0.675,1.279-1.044,1.903
			c-0.352,0.595-0.706,1.225-0.866,1.922c-0.068,0.296,0.208,0.544,0.453,0.4c0.811-0.476,1.601-1.008,2.318-1.646
			c-0.004,0.011-0.008,0.021-0.013,0.032c-0.075,0.13-0.149,0.26-0.222,0.391c-0.334,0.598-0.613,1.243-0.886,1.877
			c-0.507,1.176-0.898,2.393-1.686,3.387c-0.313,0.396-0.741,0.86-0.772,1.418c-0.01,0.173,0.144,0.372,0.308,0.353
			c0.729-0.081,1.347-0.555,1.912-1.044c-0.152,0.292-0.302,0.586-0.454,0.877c-0.327,0.626-0.641,1.262-0.956,1.896
			c-0.317,0.637-0.601,1.293-0.864,1.959c-0.259,0.656-0.446,1.333-0.673,2.002c-0.236,0.698-0.604,1.31-0.608,2.082
			c-0.001,0.205,0.138,0.33,0.309,0.355c0.616,0.089,1.177-0.282,1.734-0.513c0.616-0.255,1.219-0.55,1.822-0.84
			c0.303-0.145,0.617-0.32,0.938-0.462c0.342,0.025,0.682,0.062,1.023,0.1c0.265,0.029,0.531,0.055,0.797,0.082
			c0.074,0.141,0.111,0.303,0.128,0.5c0.065,0.761-0.141,1.515-0.127,2.276c0.006,0.339,0.048,0.698,0.255,0.962
			c0.161,0.206,0.399,0.328,0.631,0.403c0.578,0.186,1.216,0.161,1.812,0.129c0.627-0.035,1.258-0.139,1.886-0.131
			c0.178,0.002,0.307-0.155,0.32-0.344c0.067-0.93,0.193-1.854,0.234-2.787c0.012-0.281,0.018-0.564,0.011-0.845
			c0.724-0.01,1.461,0.005,2.164,0.168c0.472,0.11,0.931,0.301,1.397,0.447c0.272,0.233,0.541,0.468,0.834,0.67
			c0.419,0.289,0.906,0.581,1.416,0.503c0.129-0.02,0.242-0.194,0.237-0.333C63.949,336.235,63.711,335.858,63.52,335.469z"/>
	</g>
	<path style="fill:#D3D3D3;" d="M41.941,348.473c2.076-0.808,17.666-18.19,16.157-15.962c-1.509,2.228,5.374,9.72,5.374,9.72
		s49.669-47.141,50.223-44.926c0.554,2.214-3.522,21.21-3.522,21.21l72.931-82.406l5.206-2.152l-7.685,37.486l-4.088,13.836
		l14.63,5.239l-16.422,58.481c0,0-13.351,3.546-12.023,0.262c1.328-3.284-2.453-21.895-2.453-21.895l-5.198,0.768l-22.261,11.965
		c0,0-7.669,7.681-15.549,7.609c-7.88-0.072-15.085,0.609-13.708,2.444c1.377,1.835-6.947,13.536-8.821,13.538
		c-1.874,0.002-85.433,0-85.433,0s10.027-7.833,19.386-7.091c9.359,0.742,15.661-11.297,15.661-11.297"/>
	<path style="fill:#D3D3D3;" d="M265.755,185.9c0.384,2.306-9.121,62.917-9.121,62.917s4.106-1.057,3.974,4.165
		c-0.133,5.223-3.547,57.301-4.559,59.279c-1.012,1.978-10.458,36.617-11.644,33.793c-1.186-2.824-40.144-81.59-39.145-84.381"/>
	<path style="fill:#D3D3D3;" d="M281.668,259.628c-0.3,3.125-2.974,41.53,6.719,41.379c9.693-0.151,45.349-16.484,45.349-16.484
		s-21.618,28.457-23.958,28.578c-2.34,0.122-23.399,3.678-23.399,3.678l-31.899,42.902l-12.948-0.985l38.5-98.433"/>
	<path style="fill:#D3D3D3;" d="M405.974,288.323c0,0-0.186,0.644-0.494,1.783c-2.101,7.745-9.907,38.365-3.787,44.651
		c7.019,7.21,32.755,27.93,35.429,28.934c2.674,1.004,71.192,4.012,45.456,7.688c-25.736,3.677-90.677-1.337-90.677-1.337
		l-62.737,2.684c0,0,14.549-89.325,15.351-87.447c0.802,1.878,20.746,43.353,20.746,43.353L405.974,288.323z"/>
	<path style="fill:#D3D3D3;" d="M371.611,317.118"/>
	<path style="fill:#D3D3D3;" d="M91.652,373.872c-0.534-0.046-1.025-0.15-1.565-0.142c-0.116,0.002-0.232,0.01-0.348,0.014
		c-0.035-0.02-0.06-0.05-0.107-0.054c-3.647-0.322-7.257-0.627-10.922-0.674c-3.64-0.046-7.286,0.087-10.92,0.297
		c-0.974,0.056-0.946,1.396,0,1.494c4.001,0.414,8.023,0.658,12.045,0.738c2.012,0.04,4.023,0.033,6.034-0.028
		c0.965-0.029,1.93-0.069,2.894-0.119c0.483-0.025,0.965-0.059,1.446-0.115c0.557-0.065,1.045-0.234,1.587-0.363
		C92.412,374.773,92.222,373.922,91.652,373.872z"/>
	<path style="fill:#D3D3D3;" d="M98.235,373.963c-0.216-0.047-0.431-0.083-0.65-0.115c-0.253-0.037-0.51-0.048-0.764-0.068
		c-0.113-0.009-0.25,0.058-0.328,0.136c-0.08,0.081-0.141,0.212-0.136,0.328c0.011,0.235,0.205,0.485,0.464,0.464
		c0.254-0.02,0.512-0.032,0.764-0.069c0.219-0.032,0.434-0.067,0.65-0.115C98.513,374.464,98.513,374.024,98.235,373.963z"/>
	<path style="fill:#D3D3D3;" d="M65.076,373.417c-1.916-0.151-3.838-0.219-5.759-0.226c-1.878-0.007-3.829-0.08-5.69,0.197
		c-0.32,0.048-0.448,0.291-0.441,0.547c-0.439,0.009-0.879,0.018-1.318,0.026c-0.532,0.01-0.524,0.789,0,0.821
		c4.418,0.271,8.787,0.51,13.209,0.088C66.005,374.783,66.017,373.491,65.076,373.417z"/>
	<path style="fill:#D3D3D3;" d="M69.323,376.993c-0.933-0.16-1.902-0.112-2.842-0.031c-0.96,0.083-1.917,0.208-2.869,0.355
		c-0.238,0.037-0.369,0.335-0.311,0.547c0.07,0.256,0.308,0.345,0.547,0.311c0.911-0.13,1.825-0.216,2.741-0.303
		c0.912-0.086,1.839-0.125,2.734-0.324C69.59,377.488,69.605,377.041,69.323,376.993z"/>
	<path style="fill:#D3D3D3;" d="M398.336,380.407c-0.04-0.238-0.302-0.503-0.541-0.541c-2.214-0.357-4.516-0.384-6.754-0.483
		c-2.225-0.098-4.453-0.125-6.68-0.116c-2.744,0.012-5.491,0.128-8.23,0.339c-0.371,0.015-0.742,0.046-1.113,0.088
		c-1.381,0.122-2.76,0.262-4.134,0.442c-0.374,0.049-0.403,0.609,0,0.606c0.259-0.002,0.519-0.001,0.778-0.003
		c-0.259,0.571,0.058,1.381,0.841,1.387c4.789,0.036,9.577,0.088,14.366,0.072c2.354-0.007,4.708-0.008,7.062-0.009
		C395.223,382.189,398.729,382.717,398.336,380.407z"/>
	<path style="fill:#D3D3D3;" d="M404.435,380.321c-0.193-0.034-0.382-0.074-0.579-0.057c-0.1,0.009-0.191,0.032-0.277,0.07
		c-0.14-0.002-0.279,0.005-0.419-0.003c-0.163-0.01-0.326-0.024-0.489-0.042c-0.041-0.005-0.081-0.01-0.122-0.014
		c-0.001,0,0,0-0.002,0c-0.087-0.013-0.173-0.026-0.259-0.04c-0.146-0.025-0.281-0.023-0.414,0.054
		c-0.112,0.065-0.218,0.193-0.247,0.321c-0.062,0.274,0.082,0.593,0.375,0.66c0.375,0.086,0.755,0.148,1.137,0.194
		c0.136,0.017,0.273,0.028,0.41,0.039c0.093,0.047,0.191,0.079,0.307,0.092c0.196,0.021,0.386-0.019,0.579-0.049
		c-0.002-0.006-0.003-0.012-0.005-0.017c0.211-0.056,0.397-0.198,0.449-0.426C404.949,380.794,404.785,380.382,404.435,380.321z"/>
	<path style="fill:#D3D3D3;" d="M480.198,381.023c-3.42-0.469-6.785,0.221-10.186,0.526c-3.256,0.292-6.542,0.184-9.794,0.472
		c-0.543-0.026-1.086-0.039-1.627-0.024c-1.206,0.035-1.199,1.807,0,1.868c1.769,0.091,3.551,0.173,5.337,0.223
		c3.922,0.38,7.85,0.948,11.688-0.2c0.178-0.053,0.311-0.176,0.402-0.325c1.403-0.195,2.799-0.432,4.18-0.761
		C481.029,382.602,481.123,381.15,480.198,381.023z"/>
	<path style="fill:#D3D3D3;" d="M452.757,382.294c-0.717-0.461-1.672-0.449-2.378,0.001c-0.659-0.101-1.339-0.068-1.98,0.122
		c-0.33,0.098-0.57,0.375-0.617,0.715c-0.042,0.313,0.103,0.715,0.411,0.858c0.921,0.426,1.97,0.487,2.981,0.346
		c0.14,0.016,0.281,0.014,0.432-0.014c0.081-0.015,0.142-0.056,0.2-0.1c0.246-0.056,0.49-0.118,0.724-0.193
		c0.364-0.117,0.628-0.406,0.68-0.789C453.261,382.855,453.082,382.503,452.757,382.294z"/>
	<path style="fill:#D3D3D3;" d="M294.874,323.259c1.337,1.529,8.519,41.955,8.519,41.955l24.041-72.141
		c0,0-17.185,21.828-18.188,22.426c-1.003,0.599-11.364,1.011-11.364,1.011"/>
	<g>
		<path style="fill:#1D1D1B;" d="M139.58,285.203c2.474-2.312,4.864-4.707,7.31-7.048c1.197-1.146,2.361-2.327,3.534-3.498
			c0.601-0.6,1.201-1.2,1.793-1.808c0.563-0.577,1.134-1.182,1.443-1.936c0.156-0.38-0.326-0.598-0.614-0.472
			c-0.736,0.323-1.332,0.958-1.882,1.526c-0.592,0.609-1.178,1.223-1.762,1.839c-1.142,1.203-2.292,2.397-3.408,3.623
			c-2.254,2.476-4.563,4.897-6.787,7.399C138.98,285.082,139.329,285.437,139.58,285.203z"/>
		<path style="fill:#1D1D1B;" d="M158.909,266.592c0.598-0.549,1.18-1.114,1.744-1.698c0.275-0.285,0.541-0.574,0.794-0.879
			c0.133-0.161,0.266-0.322,0.396-0.485c0.074-0.091,0.149-0.177,0.194-0.286c0.039-0.093,0.074-0.187,0.107-0.282
			c0.072-0.211-0.186-0.386-0.366-0.282c-0.18,0.104-0.328,0.208-0.465,0.365c-0.13,0.148-0.261,0.295-0.393,0.442
			c-0.272,0.301-0.538,0.608-0.806,0.913c-0.528,0.602-1.075,1.188-1.638,1.758C158.196,266.44,158.619,266.858,158.909,266.592z"/>
		<path style="fill:#1D1D1B;" d="M190.749,258.177c-0.001-0.227-0.314-0.257-0.384-0.052c-0.278,0.809-0.42,1.683-0.615,2.516
			c-0.197,0.842-0.401,1.684-0.64,2.515c-0.072,0.251,0.295,0.341,0.385,0.106c0.316-0.825,0.603-1.658,0.827-2.513
			C190.537,259.926,190.751,259.031,190.749,258.177z"/>
		<path style="fill:#1D1D1B;" d="M190.796,265.946c-0.215,0.409-0.32,0.89-0.426,1.337c-0.109,0.456-0.218,0.911-0.327,1.367
			c-0.074,0.312,0.396,0.443,0.481,0.133c0.124-0.451,0.248-0.903,0.372-1.354c0.122-0.444,0.264-0.919,0.272-1.382
			C191.171,265.853,190.889,265.77,190.796,265.946z"/>
		<path style="fill:#1D1D1B;" d="M74.188,339.79c1.272-1.038,2.65-2.015,3.555-3.414c0.148-0.229-0.103-0.6-0.377-0.49
			c-1.524,0.611-2.728,1.732-3.975,2.765c-1.279,1.06-2.553,2.127-3.828,3.192c-2.578,2.152-5.008,4.469-7.54,6.671
			c-0.293,0.254,0.125,0.645,0.418,0.418c2.637-2.048,5.368-3.974,7.964-6.076C71.665,341.834,72.93,340.815,74.188,339.79z"/>
		<path style="fill:#1D1D1B;" d="M81.15,332.877c-0.444,0-0.445,0.69,0,0.69C81.594,333.567,81.595,332.877,81.15,332.877z"/>
		<path style="fill:#1D1D1B;" d="M78.91,339.27c-1.068,0.327-2.014,1.27-2.887,1.941c-0.991,0.762-1.981,1.526-2.971,2.29
			c-1.916,1.477-3.756,3.036-5.615,4.581c-0.196,0.163,0.063,0.501,0.274,0.355c2.021-1.391,4.049-2.76,6.018-4.225
			c0.971-0.722,1.944-1.441,2.913-2.166c0.884-0.662,2.055-1.321,2.662-2.264C79.468,339.528,79.196,339.183,78.91,339.27z"/>
		<path style="fill:#1D1D1B;" d="M85.363,333.684c-0.206,0.091-0.376,0.258-0.551,0.399c-0.172,0.138-0.334,0.288-0.499,0.435
			c-0.329,0.294-0.658,0.588-0.987,0.881c-0.091,0.082-0.083,0.237,0,0.32c0.093,0.093,0.226,0.079,0.32,0
			c0.339-0.283,0.679-0.567,1.018-0.85c0.165-0.138,0.332-0.272,0.489-0.418c0.17-0.157,0.354-0.302,0.477-0.5
			c0.046-0.073,0.029-0.177-0.03-0.237C85.534,333.648,85.444,333.648,85.363,333.684z"/>
		<path style="fill:#1D1D1B;" d="M203.139,291.967c0.083-0.172,0.165-0.343,0.248-0.514c0.04-0.083,0.08-0.166,0.12-0.249
			c0.029-0.061,0.06-0.121,0.074-0.188c0.011-0.05,0.021-0.101,0.032-0.151c0.025-0.116-0.015-0.253-0.127-0.312
			c-0.106-0.056-0.249-0.049-0.335,0.043c-0.08,0.086-0.16,0.168-0.218,0.272c-0.045,0.08-0.089,0.16-0.134,0.24
			c-0.092,0.166-0.185,0.332-0.277,0.498c-0.091,0.163-0.045,0.397,0.128,0.488C202.811,292.18,203.053,292.147,203.139,291.967z"/>
		<path style="fill:#1D1D1B;" d="M203.462,299.461c-0.046,0.105-0.094,0.21-0.143,0.314c-0.081,0.172-0.053,0.401,0.131,0.498
			c0.176,0.093,0.395,0.044,0.499-0.131c0.222-0.375,0.42-0.763,0.592-1.163c0.092-0.215,0.201-0.438,0.263-0.665
			c0.02-0.074,0.018-0.148,0.025-0.224c-0.007,0.08,0.017-0.084,0.019-0.099c0.013-0.078,0.025-0.154,0.022-0.233
			c-0.003-0.071-0.019-0.143-0.029-0.214c-0.018-0.126-0.162-0.225-0.277-0.239c-0.141-0.017-0.252,0.046-0.332,0.159
			c-0.076,0.106-0.129,0.208-0.176,0.33c-0.006,0.016-0.063,0.137-0.031,0.077c-0.04,0.072-0.079,0.141-0.103,0.221
			c-0.059,0.191-0.104,0.387-0.165,0.578c-0.061,0.19-0.128,0.378-0.201,0.564C203.52,299.323,203.486,299.408,203.462,299.461z"/>
		<path style="fill:#1D1D1B;" d="M179.464,361.604c-0.451-0.935-0.92-1.858-1.407-2.774c-0.974-1.83-1.976-3.639-3.052-5.41
			c-1.056-1.738-2.139-3.451-3.282-5.133c-0.52-0.765-1.016-1.579-1.995-1.765c-0.897-0.17-1.893,0.201-2.73,0.494
			c-1.538,0.539-2.965,1.298-4.275,2.245c-0.188-2.674-0.384-5.346-0.781-7.987c-0.537-3.577-1.454-7.123-3.118-10.352
			c-0.38-0.737-0.774-1.541-1.324-2.169c-0.638-0.728-1.529-0.853-2.428-0.619c-1.666,0.433-3.3,1.157-4.846,1.905
			c-0.732,0.354-1.446,0.736-2.15,1.132c-0.036,0.016-0.072,0.032-0.109,0.048c1.772-1.381,3.527-2.783,5.252-4.218
			c1.776-1.478,3.472-3.046,5.204-4.575c0.273-0.241-0.098-0.737-0.395-0.512c-3.212,2.433-6.498,4.771-9.728,7.181
			c-2.105,1.571-4.233,3.111-6.359,4.654c-0.789,0.311-1.581,0.614-2.374,0.913c1.896-1.598,3.828-3.15,5.769-4.698
			c1.722-1.374,3.397-2.798,5.031-4.267c0.25-0.225-0.074-0.639-0.358-0.464c-3.35,2.068-6.502,4.397-9.579,6.859
			c-1.591,1.274-3.165,2.581-4.693,3.939c-0.065,0.021-0.13,0.041-0.195,0.062c2.895-2.49,5.667-5.103,8.499-7.665
			c0.276-0.249-0.099-0.754-0.404-0.524c-3.233,2.438-6.518,4.789-9.676,7.329c-1.021,0.821-2.031,1.654-3.044,2.484
			c-0.663,0.299-1.305,0.636-1.906,1.047c-2.038,1.392-3.606,3.35-5.688,4.684c-2.162,1.385-4.643,2.232-7.198,2.465
			c-1.03-0.087-2.065-0.092-3.112,0.103c-3.453,0.642-5.861,3.487-8.081,5.971c-2.742,3.068-5.587,6.073-8.204,9.249
			c-0.67,0.814-1.329,1.637-1.995,2.454c-0.254,0.312,0.149,0.742,0.45,0.45c2.901-2.81,5.666-5.737,8.433-8.678
			c1.31-1.392,2.605-2.801,3.939-4.172c1.135-1.167,2.342-2.308,3.822-3.024c1.181-0.571,2.406-0.758,3.649-0.748
			c0.143,0.137,0.336,0.234,0.599,0.236c0.55,0.005,1.096-0.013,1.638-0.047c1.415,0.204,2.831,0.517,4.212,0.679
			c1.759,0.206,3.518,0.119,5.215-0.415c1.661-0.523,3.207-1.369,4.653-2.328c5.659-3.752,10.57-8.528,16.39-12.06
			c1.383-0.839,2.81-1.609,4.287-2.272c0.725-0.325,1.464-0.618,2.214-0.881c0.384-0.135,0.771-0.268,1.162-0.381
			c0.402-0.116,0.538-0.196,0.789,0.152c0.985,1.364,1.67,3.054,2.225,4.631c0.582,1.653,1.01,3.357,1.336,5.078
			c1.543,8.152,0.745,16.638,3.276,24.621c0.379,1.195,2.268,0.685,1.886-0.52c-1.275-4.02-1.702-8.178-2.013-12.356
			c0.052-0.022,0.1-0.052,0.155-0.066c0.289-0.06,0.433-0.254,0.469-0.476c1.455-1.128,3.106-1.993,4.879-2.498
			c0.378-0.108,0.828-0.331,1.15-0.05c0.389,0.34,0.674,0.933,0.967,1.356c0.655,0.947,1.287,1.908,1.937,2.858
			c1.341,1.961,2.621,3.975,3.864,6c0.602,0.98,1.187,1.97,1.782,2.955c0.6,0.992,1.167,2.093,1.915,2.98
			c0.243,0.288,0.686-0.024,0.603-0.351C180.377,363.427,179.884,362.474,179.464,361.604z"/>
		<path style="fill:#1D1D1B;" d="M166.741,307.683c0.699-0.847,1.443-1.655,2.233-2.417c0.39-0.377,0.786-0.749,1.187-1.114
			c0.398-0.362,0.854-0.732,1.163-1.174c0.18-0.257-0.157-0.48-0.383-0.383c-0.255,0.11-0.467,0.287-0.688,0.455
			c-0.227,0.172-0.446,0.347-0.656,0.538c-0.413,0.375-0.808,0.764-1.188,1.173c-0.757,0.815-1.465,1.675-2.126,2.57
			C166.088,307.593,166.53,307.938,166.741,307.683z"/>
		<path style="fill:#1D1D1B;" d="M234.953,231.577c0.046-0.069,0.093-0.137,0.142-0.205c0.023-0.032,0.046-0.064,0.07-0.095
			c0.013-0.018,0.026-0.035,0.04-0.052c0.003-0.004,0.011-0.015,0.017-0.022c0.102-0.13,0.208-0.257,0.319-0.38
			c0.108-0.12,0.219-0.238,0.333-0.353c0.058-0.059,0.118-0.116,0.178-0.174c0.063-0.061,0.114-0.133,0.17-0.2
			c0.068-0.082,0.087-0.194,0.017-0.282c-0.066-0.083-0.183-0.11-0.277-0.055c-0.086,0.05-0.172,0.098-0.249,0.161
			c-0.067,0.055-0.132,0.116-0.195,0.175c-0.125,0.117-0.244,0.238-0.357,0.367c-0.237,0.269-0.454,0.557-0.649,0.857
			c-0.073,0.113-0.027,0.289,0.092,0.352C234.73,231.738,234.873,231.697,234.953,231.577z"/>
		<path style="fill:#1D1D1B;" d="M260.829,201.396c0.765-0.934,1.483-1.898,2.136-2.913c0.319-0.496,0.615-1.003,0.897-1.522
			c0.281-0.518,0.612-1.112,0.699-1.698c0.029-0.194-0.191-0.369-0.353-0.205c-0.393,0.397-0.669,0.942-0.946,1.425
			c-0.302,0.526-0.612,1.049-0.924,1.57c-0.614,1.022-1.264,2.028-1.954,3C260.199,201.312,260.624,201.645,260.829,201.396z"/>
		<path style="fill:#1D1D1B;" d="M231.459,239.695c0.739-0.9,1.478-1.8,2.217-2.7c0.357-0.435,0.704-0.88,1.039-1.332
			c0.343-0.464,0.694-0.963,0.966-1.472c0.065-0.122-0.085-0.232-0.187-0.144c-0.426,0.371-0.811,0.813-1.189,1.232
			c-0.383,0.425-0.736,0.883-1.086,1.335c-0.704,0.91-1.408,1.819-2.112,2.729C230.915,239.59,231.253,239.946,231.459,239.695z"/>
		<path style="fill:#1D1D1B;" d="M231.947,243.029c-0.142,0.159-0.259,0.333-0.385,0.504c-0.127,0.171-0.254,0.342-0.384,0.511
			c-0.25,0.324-0.522,0.632-0.809,0.923c-0.229,0.232,0.13,0.591,0.358,0.358c0.308-0.316,0.594-0.65,0.862-1.001
			c0.26-0.34,0.518-0.714,0.66-1.12C232.307,243.035,232.065,242.897,231.947,243.029z"/>
		<path style="fill:#1D1D1B;" d="M282.744,250.577c0.109,0.369,0.67,0.216,0.577-0.159c-0.318-1.286-0.668-2.562-1.019-3.839
			c-0.11-0.399-0.729-0.23-0.621,0.171C282.024,248.029,282.368,249.307,282.744,250.577z"/>
		<path style="fill:#1D1D1B;" d="M265.797,258.915c-0.08-0.171-0.369-0.128-0.406,0.053c-0.097,0.47-0.056,0.951-0.058,1.43
			c-0.002,0.517-0.019,1.03-0.044,1.546c-0.049,1.017-0.163,2.034-0.376,3.03c-0.077,0.356,0.439,0.502,0.547,0.151
			c0.316-1.02,0.539-2.058,0.625-3.124c0.043-0.529,0.044-1.074,0.005-1.603C266.052,259.894,266.012,259.375,265.797,258.915z"/>
		<path style="fill:#1D1D1B;" d="M267.801,259.796c-0.434,2.953-0.554,5.948-0.745,8.923c-0.027,0.416,0.609,0.409,0.644,0
			c0.25-2.945,0.576-5.9,0.582-8.858C268.284,259.594,267.842,259.515,267.801,259.796z"/>
		<path style="fill:#1D1D1B;" d="M270.601,263.535c0.033-0.724,0.065-1.448,0.098-2.172c0.032-0.722-0.008-1.45-0.058-2.172
			c-0.02-0.285-0.484-0.395-0.535-0.072c-0.057,0.364-0.102,0.728-0.14,1.095c-0.019,0.188-0.078,0.366-0.092,0.554
			c-0.013,0.184-0.015,0.369-0.023,0.554c-0.031,0.738-0.062,1.476-0.094,2.215C269.735,264.078,270.577,264.077,270.601,263.535z"
			/>
		<path style="fill:#1D1D1B;" d="M237.398,243.74c0.503-0.72,1.006-1.444,1.451-2.203c0.07-0.12-0.105-0.267-0.199-0.153
			c-0.568,0.69-1.085,1.422-1.596,2.155c-0.062,0.088-0.016,0.222,0.071,0.273C237.224,243.869,237.336,243.828,237.398,243.74z"/>
		<path style="fill:#1D1D1B;" d="M230.826,267.651c-0.108,0.102-0.218,0.197-0.306,0.317c-0.071,0.097-0.14,0.195-0.21,0.292
			c-0.142,0.198-0.284,0.395-0.427,0.593c-0.055,0.077-0.063,0.211-0.039,0.299c0.025,0.09,0.094,0.187,0.178,0.232
			c0.09,0.047,0.199,0.071,0.298,0.039c0.101-0.033,0.17-0.092,0.232-0.178c0.139-0.195,0.277-0.391,0.416-0.586
			c0.067-0.095,0.134-0.189,0.201-0.284c0.07-0.099,0.112-0.222,0.162-0.333c0.067-0.148,0.053-0.311-0.083-0.416
			C231.121,267.527,230.944,267.54,230.826,267.651z"/>
		<path style="fill:#1D1D1B;" d="M235.327,261.224c-0.09,0.129-0.024,0.324,0.105,0.399c0.15,0.087,0.303,0.021,0.399-0.105
			c0.296-0.388,0.591-0.777,0.886-1.165c0.292-0.384,0.573-0.8,0.729-1.258c0.048-0.14-0.138-0.298-0.265-0.203
			c-0.099,0.074-0.202,0.142-0.286,0.232c-0.083,0.089-0.161,0.184-0.242,0.276c-0.171,0.195-0.329,0.396-0.478,0.609
			C235.892,260.414,235.61,260.819,235.327,261.224z"/>
		<path style="fill:#1D1D1B;" d="M232.363,274.617c-0.161,0.245,0.229,0.468,0.391,0.228c1.575-2.33,3.132-4.671,4.673-7.023
			c0.754-1.152,1.603-2.276,2.274-3.477c0.339-0.607,0.65-1.216,1.037-1.797c0.4-0.601,0.92-1.177,1.236-1.822
			c0.034-0.07-0.057-0.155-0.114-0.088c-0.398,0.455-0.674,1.045-1.011,1.551c-0.431,0.647-0.891,1.25-1.382,1.852
			c-0.874,1.071-1.578,2.313-2.354,3.457C235.509,269.858,233.928,272.232,232.363,274.617z"/>
		<path style="fill:#1D1D1B;" d="M247.158,285.49c0.529-1.375,0.777-2.844,1.058-4.285c0.283-1.449,0.54-2.903,0.795-4.357
			c0.087-0.493-0.652-0.713-0.762-0.21c-0.319,1.469-0.636,2.937-0.927,4.411c-0.285,1.441-0.61,2.903-0.639,4.377
			C246.677,285.714,247.065,285.731,247.158,285.49z"/>
		<path style="fill:#1D1D1B;" d="M275.788,277.285c-0.432,0.862-0.647,1.819-0.957,2.731c-0.319,0.939-0.647,1.872-1.042,2.782
			c-0.105,0.243,0.238,0.46,0.364,0.213c0.455-0.891,0.894-1.796,1.255-2.729c0.358-0.925,0.741-1.886,0.795-2.884
			C276.214,277.181,275.886,277.089,275.788,277.285z"/>
		<path style="fill:#1D1D1B;" d="M303.998,304.058c0.376-0.416,0.752-0.832,1.128-1.248c0.183-0.202,0.366-0.403,0.541-0.612
			c0.091-0.107,0.182-0.214,0.272-0.322c0.104-0.126,0.183-0.265,0.266-0.405c0.078-0.132,0.042-0.31-0.08-0.401
			c-0.134-0.1-0.282-0.074-0.408,0.024c-0.11,0.087-0.228,0.168-0.323,0.271c-0.089,0.097-0.178,0.194-0.268,0.292
			c-0.19,0.207-0.371,0.421-0.553,0.634c-0.36,0.421-0.719,0.841-1.079,1.262c-0.125,0.146-0.143,0.361,0,0.504
			C303.625,304.189,303.869,304.201,303.998,304.058z"/>
		<path style="fill:#1D1D1B;" d="M271.735,296.708c0.747-0.252,1.032-1.017,1.285-1.691c0.048-0.127,0.076-0.26,0.117-0.389
			c0.005-0.011,0.011-0.02,0.016-0.031c0.152-0.345,0.279-0.697,0.346-1.069c0.072-0.397,0.08-0.783,0.093-1.184
			c0.01-0.295-0.195-0.57-0.458-0.68c-0.286-0.12-0.585-0.048-0.813,0.154c-0.253,0.224-0.453,0.517-0.651,0.79
			c-0.168,0.232-0.326,0.471-0.471,0.718c-0.321,0.543-0.579,1.128-0.785,1.724c-0.135,0.391-0.154,0.806,0.051,1.177
			C270.706,296.661,271.27,296.864,271.735,296.708z"/>
		<path style="fill:#1D1D1B;" d="M275.363,292.581c-0.042,0.032-0.083,0.064-0.125,0.096c-0.077,0.077-0.129,0.168-0.159,0.272
			c-0.054,0.134-0.107,0.268-0.161,0.402c-0.027,0.067-0.053,0.134-0.08,0.201c-0.046,0.114-0.099,0.221-0.089,0.35
			c0.008,0.107,0.029,0.214,0.083,0.308c0.032,0.041,0.064,0.082,0.095,0.124c0.055,0.06,0.121,0.102,0.196,0.126
			c0.048,0.027,0.099,0.041,0.154,0.042c0.054,0.015,0.108,0.015,0.162,0c0.055,0,0.106-0.014,0.154-0.042
			c0.076-0.025,0.141-0.067,0.197-0.126c0.124-0.112,0.171-0.285,0.232-0.437c0.028-0.07,0.056-0.139,0.083-0.209
			c0.055-0.137,0.109-0.273,0.164-0.41c0.026-0.082,0.029-0.164,0.011-0.246c-0.004-0.082-0.028-0.159-0.073-0.23
			c-0.039-0.072-0.092-0.13-0.159-0.173c-0.06-0.055-0.13-0.091-0.21-0.111C275.681,292.483,275.503,292.49,275.363,292.581z"/>
		<path style="fill:#1D1D1B;" d="M222.421,312.125c0.245,0.525,0.625,0.994,1.195,0.975c0.417-0.014,0.688-0.229,0.871-0.526
			c0.409-0.182,0.751-0.514,0.908-0.993c0.289-0.882,0.056-2.12-0.602-2.787c-0.143-0.145-0.335-0.219-0.533-0.236
			c-0.258-0.499-0.587-0.957-1.001-1.346c-0.359-0.338-1.048-0.326-1.288,0.166c-0.207,0.423-0.38,0.826-0.449,1.294
			c-0.074,0.501-0.076,0.97-0.005,1.471C221.619,310.857,221.903,311.603,222.421,312.125z"/>
		<path style="fill:#1D1D1B;" d="M225.225,314.507c-0.126,0.041-0.248,0.119-0.312,0.24c-0.061,0.115-0.105,0.275-0.053,0.402
			c0.097,0.236,0.182,0.484,0.311,0.704c0.062,0.105,0.119,0.216,0.194,0.312c0.074,0.095,0.159,0.177,0.252,0.253
			c0.105,0.085,0.225,0.123,0.356,0.067c0.128-0.054,0.186-0.164,0.2-0.298c0.011-0.1,0.014-0.198,0.008-0.299
			c-0.008-0.139-0.055-0.277-0.089-0.411c-0.053-0.208-0.146-0.406-0.227-0.604c-0.016-0.068-0.047-0.127-0.093-0.177
			c-0.037-0.057-0.085-0.102-0.146-0.134C225.516,314.494,225.351,314.466,225.225,314.507z"/>
		<path style="fill:#1D1D1B;" d="M132.372,329.946c-0.26-0.201-0.593-0.212-0.882-0.062c-0.579,0.3-1.102,0.775-1.543,1.254
			c-0.449,0.489-0.848,1.036-1.158,1.624c-0.152,0.289-0.324,0.6-0.379,0.924c-0.001,0.005,0,0.01-0.001,0.016
			c-0.001,0.002-0.003,0.003-0.004,0.005c-0.168,0.27-0.121,0.686,0.116,0.904c0.004,0.004,0.009,0.005,0.013,0.009
			c0.085,0.167,0.199,0.321,0.377,0.436c0.851,0.549,1.721-0.269,2.32-0.813c0.272-0.247,0.529-0.51,0.769-0.788
			c0.152-0.176,0.301-0.357,0.435-0.547c0.114-0.162,0.191-0.332,0.28-0.508c0.172-0.339,0.113-0.736-0.195-0.975
			c-0.025-0.019-0.057-0.027-0.084-0.043c0.082-0.198,0.156-0.398,0.219-0.602C132.751,330.477,132.614,330.134,132.372,329.946z"/>
		<path style="fill:#1D1D1B;" d="M133.821,331.992c0.019-0.005,0.035-0.015,0.049-0.029c0.06-0.051,0.121-0.102,0.181-0.154
			c0.013-0.012,0.022-0.026,0.027-0.042c0.008-0.016,0.012-0.032,0.011-0.05c0-0.032-0.014-0.07-0.038-0.092
			c-0.025-0.023-0.058-0.04-0.092-0.038c-0.033,0.001-0.07,0.012-0.092,0.038l-0.154,0.181c-0.019,0.023-0.033,0.048-0.033,0.079
			c0,0.027,0.012,0.06,0.033,0.079c0.021,0.02,0.049,0.034,0.079,0.033C133.802,331.995,133.811,331.994,133.821,331.992z"/>
		<path style="fill:#1D1D1B;" d="M258.926,317.368c-0.436,1.046-0.892,2.07-1.228,3.152c-0.333,1.072-0.672,2.141-0.986,3.219
			c-0.617,2.117-1.282,4.219-1.951,6.32c-1.349,4.235-2.844,8.42-4.391,12.585c-0.884,2.38-1.724,4.785-2.692,7.132
			c-0.129,0.312,0.399,0.534,0.547,0.23c0.978-2.012,1.967-4.007,2.902-6.04c0.945-2.054,1.77-4.163,2.607-6.263
			c1.677-4.203,3.09-8.519,4.372-12.858c0.351-1.19,0.672-2.381,0.959-3.588c0.299-1.257,0.448-2.509,0.584-3.792
			C259.697,317.015,259.07,317.023,258.926,317.368z"/>
		<path style="fill:#1D1D1B;" d="M260.897,313.657c0.178-0.404,0.336-0.816,0.463-1.239c0.061-0.201,0.121-0.405,0.156-0.613
			c0.037-0.225,0.112-0.483,0.038-0.704c-0.071-0.212-0.316-0.221-0.442-0.058c-0.125,0.163-0.148,0.399-0.205,0.594
			c-0.057,0.195-0.101,0.394-0.156,0.59c-0.108,0.379-0.237,0.753-0.391,1.116c-0.066,0.154-0.046,0.333,0.111,0.425
			C260.604,313.845,260.829,313.811,260.897,313.657z"/>
		<path style="fill:#1D1D1B;" d="M261.484,326.697c-0.248,0.423-0.385,0.928-0.518,1.399c-0.142,0.507-0.276,1.016-0.41,1.525
			c-0.262,1-0.525,1.999-0.787,2.999c-0.113,0.431,0.536,0.608,0.666,0.184c0.301-0.989,0.603-1.977,0.905-2.966
			c0.148-0.485,0.293-0.971,0.436-1.457c0.143-0.488,0.298-1.011,0.309-1.521C262.091,326.537,261.643,326.426,261.484,326.697z"/>
		<path style="fill:#1D1D1B;" d="M334.087,286.288c-0.32,0.557-0.484,1.228-0.679,1.837c-0.19,0.597-0.345,1.206-0.51,1.81
			c-0.343,1.256-0.678,2.514-1.001,3.775c-0.09,0.351,0.427,0.489,0.54,0.149c0.41-1.237,0.807-2.478,1.198-3.721
			c0.188-0.598,0.388-1.194,0.549-1.799c0.165-0.62,0.385-1.269,0.417-1.912C334.616,286.149,334.22,286.057,334.087,286.288z"/>
		<path style="fill:#1D1D1B;" d="M282.599,323.672c0.083-0.352-0.307-0.528-0.564-0.328c-1.169,0.911-1.847,2.3-2.625,3.538
			c-0.825,1.314-1.639,2.634-2.448,3.959c-1.599,2.619-2.992,5.345-4.475,8.029c-0.203,0.368,0.34,0.685,0.563,0.329
			c1.626-2.599,3.385-5.114,5.002-7.72c0.797-1.285,1.602-2.565,2.408-3.844C281.258,326.371,282.254,325.144,282.599,323.672z"/>
		<path style="fill:#1D1D1B;" d="M438.972,347.671c-0.167-1.287-0.375-2.569-0.571-3.852c-0.39-2.554-0.794-5.105-1.213-7.654
			c-0.419-2.549-0.852-5.096-1.3-7.64c-0.416-2.361-0.667-4.862-1.692-7.055c-0.51-1.092-1.211-2.086-1.872-3.09
			c-0.687-1.044-1.375-2.089-2.067-3.13c-1.384-2.083-2.784-4.155-4.226-6.198c-2.76-3.911-5.739-7.629-8.8-11.307
			c-3.25-3.904-6.306-7.912-9.108-12.147c0.131-0.704-0.921-1.346-1.508-0.74c-1.366,1.41-2.611,2.945-3.934,4.397
			c-1.3,1.426-2.626,2.829-3.978,4.206c-2.714,2.765-5.561,5.425-8.524,7.922c-1.427,1.202-2.929,2.332-4.583,3.206
			c-0.422,0.223-0.85,0.429-1.276,0.631c-0.262-0.17-0.601-0.204-0.95,0.023c-6.266,4.084-11.781,9.22-16.318,15.164
			c-0.403,0.528-0.787,1.069-1.173,1.61c-1.28-1.116-2.532-2.263-3.714-3.482c-0.01-0.01-0.019-0.02-0.029-0.03
			c-0.234-0.284-0.452-0.581-0.69-0.862c-0.114-0.135-0.244-0.207-0.377-0.254c-1.062-1.131-2.088-2.301-2.996-3.556
			c-0.148-0.205-0.283-0.419-0.424-0.628c-3.273-7.996-6.159-16.15-9.433-24.146c-1.104-2.695-2.248-5.375-3.465-8.022
			c-1.038-2.26-2.051-4.756-3.771-6.608c-0.029-0.069-0.054-0.137-0.105-0.203c-0.078-0.101-0.193-0.179-0.318-0.241
			c-0.499-0.468-1.094-0.266-1.388,0.154c-0.17,0.06-0.333,0.154-0.462,0.33c-0.183,0.249-0.358,0.504-0.535,0.757
			c-0.013-0.034-0.011-0.066-0.029-0.1c-0.836-1.621-1.956-3.062-3.118-4.46c-0.127-0.152-0.256-0.302-0.383-0.454
			c-0.003-0.003-0.006-0.007-0.009-0.01c-1.096-1.31-2.202-2.612-3.304-3.917l-7.573-8.969c-5.099-6.038-10.25-12.033-15.406-18.023
			c-1.294-1.503-2.513-3.25-4.112-4.446c-0.236-0.176-0.492-0.325-0.757-0.46c-0.262-0.242-0.525-0.485-0.787-0.727
			c-0.849-0.785-1.761-1.596-3.006-1.196c-0.93,0.298-1.671,1.012-2.377,1.683c-0.189,0.036-0.378,0.071-0.567,0.107
			c-0.923,0.174-1.847,0.398-2.793,0.344c-1.375-0.08-2.641-0.806-3.828-1.511c-0.633-1.489-1.252-2.985-1.846-4.491
			c-1.597-4.049-3.06-8.147-4.535-12.241c-2.961-8.216-5.833-16.493-9.486-24.435c-0.516-1.122-1.048-2.237-1.595-3.344
			c-0.519-1.048-1.014-2.136-1.661-3.113c-1.186-1.791-3.084-3.214-5.318-2.45c-0.106,0.036-0.174,0.097-0.226,0.165
			c-0.092,0.067-0.177,0.142-0.239,0.231c-7.658,10.89-15.746,21.467-24.043,31.876c-3.334,4.183-6.702,8.338-10.079,12.486
			c-0.286-0.086-0.606-0.042-0.882,0.255c-2.956,3.182-5.676,6.63-8.39,10.018c-2.728,3.405-5.385,6.865-7.97,10.38
			c-1.379,1.875-2.762,3.76-4.112,5.668c-0.258,0.328-0.524,0.649-0.781,0.977c-1.537,1.965-3.332,4.115-3.698,6.602
			c-3.13-6.141-6.374-12.226-9.348-18.444c-1.58-3.303-3.009-6.667-4.443-10.032c-0.14-0.601-0.378-1.178-0.734-1.719
			c-0.082-0.192-0.164-0.384-0.246-0.577c-0.068-0.158-0.216-0.191-0.352-0.152c-0.373-0.32-0.945-0.263-1.295,0.057
			c-9.595,8.774-18.953,17.803-28.182,26.96c-9.231,9.159-18.339,18.442-27.434,27.736c-4.981,5.089-9.968,10.172-14.955,15.256
			c-0.911-1.06-1.436-2.375-1.455-3.81c-0.009-0.685-0.814-1.233-1.431-0.821c-4.072,2.718-7.725,5.988-11.209,9.415
			c-3.561,3.502-7.05,7.071-10.684,10.499c-7.113,6.711-14.449,13.181-21.95,19.455c-0.106-0.016-0.22-0.013-0.348,0.031
			c-1.073,0.372-2.14,0.762-3.211,1.138c-1.049,0.368-2.11,0.806-3.198,1.043c-0.344,0.075-0.686,0.083-1.02,0.048
			c-0.227-0.193-0.438-0.407-0.628-0.625c-0.442-0.505-0.805-1.08-1.165-1.646c-0.195-0.782-0.402-1.561-0.621-2.337
			c-0.313-1.104-0.545-2.892-1.8-3.345c-1.22-0.44-2.171,0.561-2.952,1.414c-0.019,0.013-0.038,0.02-0.057,0.034
			c-0.106,0.083-0.181,0.182-0.242,0.288c-0.017,0.018-0.035,0.038-0.051,0.055c-1.168,1.231-2.317,2.479-3.455,3.737
			c-0.008,0.004-0.016,0.01-0.024,0.014c-0.079,0.043-0.125,0.109-0.15,0.182c-2.859,3.171-5.624,6.424-8.273,9.775
			c-2.083,2.635-4.02,5.377-5.952,8.124c-0.223,0.317,0.298,0.726,0.542,0.418c3.434-4.336,7.066-8.527,10.704-12.693
			c1.693-1.938,3.424-3.843,5.18-5.724c0.008-0.003,0.016-0.005,0.024-0.008c0.581-0.211,1.145-0.523,1.744-0.679
			c1.15-0.3,1.364,1.288,1.64,2.08c0.823,2.36,1.863,4.657,3.123,6.817c0.047,0.08,0.106,0.143,0.17,0.199
			c-1.376,1.14-2.751,2.281-4.141,3.405c-0.278,0.225,0.092,0.711,0.386,0.5c4.029-2.897,7.978-5.886,11.86-8.961
			c0.082-0.052,0.167-0.099,0.248-0.151c0.103-0.066,0.174-0.146,0.23-0.229c3.87-3.077,7.674-6.239,11.416-9.487
			c7.629-6.624,14.995-13.536,22.271-20.543c1.703-1.64,3.416-3.28,5.184-4.857c1.643-1.024,3.534-1.718,5.457-1.929
			c-0.015,0.26-0.051,0.514-0.096,0.765c-2.068,1.933-3.933,4.061-5.767,6.226c-2.157,2.547-4.296,5.125-6.538,7.598
			c-0.188,0.207,0.109,0.509,0.309,0.309c2.979-2.978,6.176-5.852,9.055-8.978c-1.289,1.627-2.595,3.24-3.931,4.828
			c-2.751,3.269-5.612,6.442-8.576,9.518c-1.699,1.763-3.4,3.526-5.182,5.206c-0.298,0.28,0.142,0.707,0.445,0.445
			c5.602-4.85,10.916-9.986,15.755-15.587c-1.553,3.333-2.938,6.745-4.152,10.216c-0.293,0.839,0.881,1.182,1.335,0.563
			c3.028-4.127,6.094-8.226,9.162-12.324c2.55-2.612,5.076-5.242,7.597-7.885c2.963-3.106,5.823-6.313,8.817-9.388
			c0.78-0.802,1.576-1.589,2.396-2.349c0.437-0.405,0.885-0.797,1.326-1.198c0.447-0.407,0.808-0.861,1.218-1.299
			c0.307-0.328-0.082-0.854-0.483-0.626c-0.91,0.516-1.689,1.06-2.471,1.766c-0.746,0.675-1.469,1.376-2.177,2.091
			c-1.455,1.467-2.847,2.996-4.243,4.519c-2.488,2.715-4.939,5.466-7.383,8.221c2.245-3.006,4.486-6.015,6.704-9.04
			c0.841-1.147,1.658-2.318,2.582-3.4c0.869-1.017,1.868-1.907,2.828-2.834c0.194-0.188,0.233-0.444,0.171-0.676
			c4.465-4.559,8.936-9.112,13.42-13.653c9.136-9.252,18.339-18.439,27.715-27.449c4.633-4.452,9.315-8.854,14.041-13.208
			c-0.018,1.706-0.04,3.417-0.229,5.111c-0.11,0.984-0.301,1.965-0.592,2.912c-0.285,0.929-0.682,1.844-0.843,2.803
			c-0.032,0.19,0.053,0.372,0.19,0.477c-0.769,2.243-1.558,4.479-2.384,6.701c-2.693,7.241-5.666,14.374-8.739,21.461
			c-1.756,4.05-3.575,8.074-5.299,12.138c-0.115,0.272-0.124,0.559-0.025,0.809c-0.32,0.968-0.386,2.015-0.153,3.077
			c0.08,0.366,0.527,0.615,0.881,0.5c1.282-0.414,2.583-0.765,3.897-1.065l0.101,1.258c0.042,0.517,0.451,0.835,0.963,0.734
			c0.404-0.08,0.807-0.16,1.211-0.24c-0.928,0.919-1.86,1.834-2.779,2.762c-2.92,2.949-5.592,6.108-8.314,9.236
			c-0.231,0.266,0.132,0.64,0.391,0.391c2.974-2.878,6.072-5.625,9.036-8.514c1.468-1.43,2.951-2.844,4.434-4.257
			c0.074-0.07,0.15-0.139,0.225-0.21c0.507-0.1,1.015-0.201,1.522-0.301c-0.001,0.001-0.003,0.003-0.005,0.004
			c-2.298,2.301-4.418,4.765-6.653,7.125c-0.364,0.384,0.195,0.943,0.58,0.58c2.316-2.177,4.736-4.238,6.996-6.476
			c0.606-0.6,1.217-1.194,1.837-1.78c0.826-0.164,1.653-0.327,2.48-0.491c0.089-0.018,0.178-0.035,0.267-0.053
			c-0.061,0.062-0.125,0.12-0.184,0.184c-0.423,0.453-0.845,0.907-1.268,1.36c-0.136,0.145-0.144,0.377,0,0.521
			c0.138,0.138,0.384,0.145,0.521,0c0.426-0.45,0.851-0.901,1.277-1.351c0.208-0.22,0.403-0.448,0.597-0.679
			c0.075-0.089,0.149-0.177,0.222-0.266c1.27-0.252,2.539-0.505,3.809-0.757c0.873-0.174,1.747-0.348,2.62-0.521
			c0.603-0.119,1.449-0.361,1.781,0.331c0.304,0.633,0.394,1.438,0.505,2.122c0.131,0.807,0.193,1.626,0.213,2.443
			c0.04,1.609-0.058,3.224-0.297,4.816c-0.496,3.317-1.437,6.545-2.292,9.781c-0.439,1.662-0.861,3.33-1.198,5.016
			c-0.15,0.752-0.535,1.733,0.09,2.345c0.41,0.401,0.984,0.57,1.548,0.535c0.496-0.03,0.966-0.183,1.437-0.332
			c0.247-0.078,0.503-0.172,0.76-0.208c0.105-0.015,0.257-0.007,0.259-0.005c0.235,0.26-0.055,1.204-0.118,1.54
			c-0.176,0.935-0.356,1.87-0.54,2.805c-1.376,7.006-2.95,13.973-4.719,20.89c-1.003,3.92-2.068,7.823-3.196,11.709
			c-0.553,1.905-1.121,3.805-1.703,5.701c-0.575,1.87-1.202,3.707-1.432,5.65c-0.196,0.254-0.074,0.737,0.268,0.832
			c0.031,0.009,0.064,0.012,0.095,0.021c0.034,0.01,0.068,0.017,0.103,0.022c1.864,0.485,3.845,0.535,5.762,0.681
			c1.941,0.148,3.885,0.243,5.829,0.334c3.883,0.182,7.78,0.209,11.667,0.213c7.861,0.008,15.722-0.246,23.565-0.77
			c1.776-0.118,3.713-0.18,5.126-1.41c0.536-0.467,0.892-1.063,1.223-1.675c-0.17,0.568-0.329,1.14-0.512,1.705
			c-0.171,0.526,0.618,0.717,0.814,0.224c0.486-1.224,0.989-2.44,1.496-3.654c0.038-0.026,0.072-0.059,0.096-0.108
			c0.376-0.78,0.811-1.512,1.224-2.271c0.449-0.826,0.795-1.704,1.233-2.535c0.83-1.573,1.438-3.306,2.12-4.947
			c1.391-3.343,2.714-6.714,4.004-10.097c2.579-6.764,4.991-13.596,7.261-20.469c0.642-1.943,1.27-3.89,1.886-5.842
			c0.308-0.975,0.632-1.948,0.895-2.936c0.196-0.736,0.418-1.469,0.504-2.222c2.974-8.037,5.958-16.071,8.961-24.098
			c1.648-4.404,3.299-8.806,4.956-13.207c0.862-2.291,1.7-4.584,2.727-6.784c0.153-0.061,0.304-0.124,0.457-0.185
			c-0.352,1.168-0.701,2.337-1.047,3.507c-0.733,2.472-1.454,4.947-2.179,7.422c-1.449,4.945-2.915,9.891-4.466,14.805
			c-0.872,2.764-1.616,5.565-2.498,8.325c-0.082,0.257,0.307,0.356,0.399,0.11c0.908-2.424,1.902-4.81,2.793-7.242
			c0.887-2.424,1.763-4.857,2.605-7.297c1.683-4.879,3.368-9.762,4.903-14.69c0.111-0.357,0.217-0.716,0.328-1.074
			c0.053,0.388,0.105,0.775,0.153,1.16c0.237,1.917,0.481,3.834,0.738,5.749c0.505,3.759,1.118,7.493,2.27,11.116
			c0.236,0.743,1.413,0.639,1.396-0.189c-0.106-5.093-0.047-10.181,0.421-15.257c0.458-4.976,1.053-9.944,2.488-14.749
			c0.314-1.05,0.684-2.083,1.224-3.041c0.129-0.229,0.272-0.441,0.421-0.645c0.212-0.259,0.424-0.518,0.636-0.778
			c0.349-0.386,0.719-0.754,1.094-1.143c0.12-0.124,0.179-0.28,0.201-0.442c0.068-0.083,0.135-0.165,0.202-0.248
			c-0.167,0.534-0.347,1.064-0.503,1.601c-0.656,2.255-1.218,4.537-1.703,6.834c-0.475,2.255-0.858,4.52-1.142,6.807
			c-0.288,2.319-0.326,4.661-0.476,6.991c-0.03,0.464,0.665,0.448,0.713,0c0.249-2.334,0.763-4.609,1.201-6.913
			c0.416-2.188,0.875-4.373,1.398-6.538c0.524-2.17,1.125-4.32,1.782-6.454c0.34-1.103,0.7-2.201,1.067-3.296
			c0.171-0.511,0.347-1.02,0.526-1.528c0.104-0.294,0.211-0.574,0.25-0.886c0.018-0.141,0.01-0.267-0.001-0.394
			c0.452-0.541,0.895-1.089,1.328-1.644c-0.303,1.137-0.422,2.348-0.605,3.495c-0.232,1.459-0.46,2.919-0.68,4.38
			c-0.436,2.89-0.816,5.795-1.333,8.671c-0.055,0.306,0.393,0.441,0.473,0.13c0.736-2.857,1.492-5.698,2.042-8.599
			c0.267-1.409,0.504-2.83,0.701-4.25c0.2-1.444,0.514-2.976,0.377-4.436c-0.017-0.184-0.134-0.29-0.268-0.339
			c0.257-0.358,0.515-0.716,0.749-1.086c0.072-0.113,0.096-0.225,0.101-0.334c0.89-0.986,1.78-1.972,2.67-2.959
			c0.487-0.539,0.973-1.079,1.46-1.618c1.476,0.562,2.976,1.075,4.453,1.621c0.185,0.068,0.357,0.055,0.516,0.008
			c0.837,0.983,1.651,1.988,2.473,2.98c2.419,2.922,4.843,5.839,7.273,8.752c4.806,5.76,9.634,11.5,14.472,17.234
			c1.193,1.414,2.387,2.827,3.579,4.242c-0.249,0.266-0.485,0.546-0.724,0.816c-0.504,0.569-0.995,1.15-1.485,1.731
			c-1.05,1.245-2.079,2.508-3.074,3.798c-1.967,2.552-3.624,5.279-5.347,7.995c-0.157,0.248,0.216,0.447,0.384,0.224
			c1.917-2.542,4.075-4.913,6.127-7.347c1.003-1.189,2.016-2.368,3.054-3.527c0.507-0.565,1.022-1.122,1.534-1.682
			c0.206-0.225,0.424-0.449,0.639-0.678c0.411,0.504,0.812,1.015,1.191,1.54c-0.585,0.356-1.044,1.004-1.497,1.486
			c-0.605,0.642-1.208,1.287-1.809,1.933c-1.176,1.262-2.354,2.524-3.49,3.823c-2.302,2.631-4.583,5.281-6.822,7.966
			c-0.308,0.369,0.191,0.894,0.537,0.537c2.427-2.503,4.86-4.997,7.323-7.465c1.218-1.22,2.408-2.468,3.611-3.702
			c0.616-0.632,1.233-1.262,1.851-1.891c0.376-0.383,0.881-0.783,1.239-1.242c0.162,0.272,0.328,0.542,0.474,0.826
			c0.132,0.255,0.324,0.389,0.531,0.449c-0.644,0.663-1.28,1.332-1.915,1.983c-1.52,1.558-3.024,3.13-4.516,4.716
			c-2.957,3.143-5.889,6.31-8.846,9.453c-2.955,3.141-5.947,6.247-9.005,9.287c-1.542,1.533-3.101,3.048-4.683,4.54
			c-1.546,1.457-3.082,2.961-4.74,4.291c-0.868,0.697-1.8,1.225-2.775,1.661c2.532-2.666,5.078-5.318,7.597-7.995
			c1.675-1.78,3.37-3.542,5.055-5.313c1.707-1.794,3.534-3.488,4.934-5.54c0.159-0.233-0.16-0.556-0.394-0.393
			c-2.039,1.418-3.693,3.281-5.42,5.054c-1.706,1.751-3.377,3.536-5.04,5.328c-2.849,3.069-5.565,6.246-8.247,9.457
			c-0.678,0.236-1.371,0.448-2.076,0.646c-0.715,0.201-1.431,0.402-2.147,0.607c0.73-0.797,1.472-1.584,2.235-2.35
			c0.619-0.622,1.255-1.228,1.884-1.839c0.323-0.314,0.663-0.613,0.978-0.933c0.281-0.285,0.665-0.723,0.757-1.117
			c0.071-0.305-0.182-0.51-0.467-0.467c-0.387,0.058-0.828,0.403-1.119,0.655c-0.34,0.293-0.652,0.625-0.97,0.942
			c-0.657,0.654-1.279,1.336-1.899,2.026c-1.023,1.139-1.988,2.326-2.93,3.532c-1.234,0.373-2.459,0.775-3.658,1.241
			c-0.059,0.023-0.098,0.059-0.139,0.093c-1.024,0.197-2.047,0.404-3.061,0.654c-1.527,0.376-3.965,1.171-4.561,2.863
			c-0.614,0.57-1.178,1.199-1.697,1.877c-1.213,1.584-2.343,3.238-3.445,4.9c-2.211,3.334-4.299,6.742-6.206,10.259
			c-2.162,3.988-4.037,8.084-5.74,12.287c-0.142,0.352,0.455,0.606,0.617,0.26c3.293-7.017,7.157-13.823,11.486-20.251
			c1.087-1.613,2.219-3.196,3.375-4.76c1.077-1.458,2.171-3.093,3.764-4.032c0.27-0.159,0.558-0.282,0.843-0.408
			c-0.018,0.03-0.037,0.062-0.055,0.091c-0.313,0.48-0.648,0.942-1.006,1.383c-0.139,0.17-0.166,0.408,0,0.575
			c0.148,0.148,0.429,0.165,0.575,0c0.413-0.469,0.802-0.96,1.166-1.468c0.227-0.318,0.495-0.679,0.653-1.065
			c0.233-0.067,0.468-0.126,0.705-0.181c-0.758,0.715-1.289,1.662-1.852,2.537c-0.637,0.988-1.232,2.003-1.818,3.022
			c-1.199,2.083-2.204,4.246-3.239,6.411c-0.139,0.29,0.272,0.541,0.437,0.255c1.197-2.067,2.545-4.053,3.847-6.056
			c0.642-0.987,1.307-1.959,1.962-2.937c0.66-0.985,1.443-1.902,1.805-3.039c0.056-0.174,0.017-0.313-0.066-0.415
			c0.236-0.041,0.471-0.078,0.706-0.114c-0.046,0.162,0.024,0.361,0.242,0.361c0.251,0,0.316-0.266,0.217-0.431
			c0.459-0.066,0.919-0.124,1.378-0.185c1.965-0.028,3.929-0.125,5.892-0.245c1.086-0.066,2.173-0.133,3.259-0.198
			c0.907-0.055,1.869-0.167,2.474,0.65c0.529,0.715,0.763,1.656,1.045,2.484c0.345,1.014,0.657,2.038,0.935,3.072
			c0.548,2.036,0.971,4.104,1.35,6.178c0.428,2.344,0.771,4.702,1.117,7.059c0.145,0.988,1.572,0.809,1.827,0
			c3.704-11.749,8.228-23.174,13.3-34.396c0.875-1.937,1.748-3.87,2.585-5.818c0.168-0.224,0.337-0.448,0.505-0.672
			c-0.098,0.397-0.195,0.795-0.297,1.191c-0.683,2.658-1.378,5.311-2.127,7.951c-1.486,5.238-3.077,10.448-4.855,15.594
			c-1.008,2.919-1.979,5.851-2.989,8.769c-0.108,0.312,0.401,0.534,0.54,0.227c4.503-9.959,7.95-20.402,10.815-30.941
			c0.411-1.513,0.796-3.033,1.171-4.555c0.147-0.597,0.29-1.194,0.415-1.794c0.779-1.046,1.549-2.098,2.324-3.146
			c-0.087,0.307-0.181,0.613-0.266,0.921c-0.665,2.428-1.308,4.861-1.922,7.302c-0.605,2.404-1.159,4.819-1.694,7.24
			c-0.545,2.463-0.979,4.947-1.491,7.417c-0.043,0.206,0.264,0.295,0.318,0.088c1.254-4.787,2.734-9.524,4.11-14.278
			c0.689-2.379,1.391-4.755,2.113-7.125c0.349-1.146,0.686-2.297,1.032-3.444c0.185-0.612,0.371-1.224,0.558-1.835
			c0.005-0.018,0.011-0.036,0.017-0.054c0.4-0.546,0.806-1.089,1.204-1.636c1.725-2.365,3.484-4.719,5.164-7.122
			c0.102-0.099,0.199-0.202,0.301-0.302c-0.018,0.273-0.038,0.546-0.056,0.819c-0.063,0.921-0.104,1.844-0.157,2.766
			c-0.109,1.912-0.089,3.83-0.121,5.745c-0.009,0.499,0.826,0.641,0.896,0.121c0.254-1.883,0.556-3.762,0.747-5.653
			c0.093-0.921,0.186-1.844,0.265-2.766c0.014-0.169,0.034-0.339,0.055-0.509c0.75,1.243,1.378,2.561,1.991,3.884
			c1.09,2.35,2.123,4.727,3.115,7.121c1.976,4.771,3.803,9.602,5.646,14.425c3.328,8.706,6.784,17.377,11.166,25.608
			c0.163,0.576,0.455,1.128,0.729,1.649c0.609,1.158,1.325,2.256,2.089,3.326c1.007,1.681,2.045,3.346,3.142,4.964
			c0.669,0.986,1.367,1.948,2.077,2.901c0.538,1.798,1.398,3.474,2.276,5.129c0.955,1.801,1.953,3.58,2.993,5.333
			c2.099,3.539,4.367,6.978,6.796,10.299c1.208,1.653,2.456,3.276,3.739,4.872c0.323,0.402,0.729,0.646,1.26,0.501
			c0.389-0.107,0.664-0.414,0.806-0.778c0.201,0.304,0.4,0.609,0.608,0.908c0.687,0.985,2.11,0.147,1.603-0.937
			c-0.852-1.82-2.101-3.512-3.251-5.154c-1.168-1.668-2.391-3.298-3.626-4.917c-0.215-0.282-0.433-0.561-0.649-0.843
			c-0.683-1.204-1.375-2.404-2.092-3.587c-0.382-0.631-0.757-1.268-1.134-1.902c-0.401-1.48-0.74-2.973-1.017-4.478
			c0.635-1.004,1.271-2.007,1.919-3.002c1.664-2.553,3.248-5.159,4.942-7.693c0.247-0.369-0.327-0.677-0.583-0.341
			c-1.827,2.407-3.685,4.796-5.376,7.302c-0.414,0.613-0.817,1.233-1.225,1.849c-0.103-0.679-0.195-1.36-0.276-2.042
			c0.536-0.771,1.073-1.541,1.603-2.316c1.38-2.021,2.777-4.031,4.125-6.074c1.347-2.041,2.714-4.069,4.056-6.114
			c1.385-2.111,2.702-4.266,4.068-6.39c0.243-0.378-0.333-0.686-0.589-0.345c-1.529,2.031-3.1,4.029-4.613,6.071
			c-1.461,1.972-2.891,3.967-4.344,5.946c-1.452,1.976-2.856,3.987-4.276,5.986c-0.101,0.142-0.2,0.286-0.301,0.429
			c-0.178-2.315-0.246-4.64-0.22-6.963c0.005-0.507,0.031-1.013,0.046-1.52c1.631-2.392,3.316-4.753,4.805-7.236
			c1.05-1.75,1.926-3.554,2.759-5.415c0.095-0.211-0.199-0.397-0.318-0.186c-0.872,1.554-1.911,3.017-2.92,4.487
			c-1.014,1.477-2.049,2.94-3.1,4.39c-0.379,0.523-0.759,1.047-1.138,1.572c0.053-0.999,0.114-1.998,0.194-2.995
			c0.23-0.346,0.46-0.693,0.691-1.039c2.611-3.903,5.326-7.734,7.992-11.598c1.514-2.195,2.97-4.436,4.527-6.6
			c0.189-0.263-0.241-0.598-0.452-0.349c-1.521,1.801-3.097,3.553-4.578,5.388c-1.478,1.833-2.9,3.71-4.302,5.602
			c-1.201,1.62-2.371,3.264-3.53,4.914c0.287-2.73,0.644-5.481,1.543-8.079c0.996-2.877,2.872-5.399,5.559-6.89
			c0.191-0.106,0.242-0.309,0.205-0.495c1.595-0.771,3.048-1.765,4.434-2.869c3.023-2.406,5.829-5.097,8.599-7.786
			c1.547-1.502,3.062-3.036,4.541-4.606c1.344-1.428,2.711-2.871,3.932-4.412c1.749,3.826,4.312,7.234,6.908,10.522
			c2.921,3.701,5.942,7.318,8.699,11.146c2.871,3.987,5.574,8.098,8.238,12.225c0.057,0.089,0.111,0.178,0.167,0.268
			c-0.135,0.071-0.255,0.165-0.317,0.307c-1.836,4.177-3.735,8.327-5.716,12.437c-1.985,4.119-3.844,8.297-5.844,12.408
			c-0.214,0.439,0.409,0.818,0.662,0.387c2.307-3.932,4.599-7.866,6.614-11.958c1.93-3.918,3.781-7.873,5.554-11.864
			c0.175,0.377,0.335,0.762,0.457,1.168c0.003,0.01,0.005,0.021,0.008,0.031c-0.021,0.013-0.049,0.015-0.065,0.034
			c-0.053,0.065-0.113,0.13-0.154,0.203c-0.043,0.078-0.071,0.172-0.105,0.255c-0.051,0.125-0.102,0.251-0.153,0.376
			c-0.103,0.253-0.176,0.521-0.26,0.781c-0.067,0.208,0.078,0.466,0.292,0.514c0.229,0.052,0.443-0.069,0.514-0.292
			c0.076-0.236,0.16-0.471,0.222-0.711c0.172,0.786,0.304,1.582,0.446,2.372c0.449,2.503,0.884,5.008,1.304,7.516
			c0.474,2.826,0.931,5.655,1.369,8.487c0.222,1.436,0.438,2.873,0.653,4.31c0.21,1.404,0.381,2.844,0.977,4.139
			c0.22,0.477,1.09,0.382,1.171-0.153C439.327,350.17,439.136,348.936,438.972,347.671z M63.359,342.231
			c0.038,0.001,0.075,0.005,0.114,0c-0.039,0.032-0.078,0.065-0.117,0.097C63.356,342.295,63.357,342.263,63.359,342.231z
			 M270.146,187.149c0.974,1.87,1.833,3.806,2.681,5.735c1.703,3.876,3.247,7.816,4.711,11.788
			c2.919,7.921,5.539,15.95,8.617,23.813c0.863,2.206,1.762,4.399,2.706,6.572c0.06,0.139,0.125,0.276,0.186,0.414
			c-0.021,0.168,0.016,0.352,0.139,0.541c0.088,0.134,0.186,0.26,0.279,0.391c0.288,0.645,0.571,1.293,0.868,1.934
			c0.507,1.092,0.963,2.191,1.704,3.144c0.085,0.109,0.185,0.172,0.289,0.215c-0.439,0.486-0.877,0.972-1.315,1.458
			c-0.099-0.271-0.209-0.539-0.302-0.799c-0.244-0.681-0.491-1.362-0.739-2.042c-0.485-1.326-1.053-2.619-1.587-3.926
			c-1.05-2.573-2.286-5.059-3.422-7.594c-0.126-0.28-0.597-0.081-0.498,0.21c0.902,2.651,1.653,5.356,2.507,8.022
			c0.416,1.298,0.796,2.608,1.235,3.898c0.233,0.684,0.464,1.369,0.693,2.055c0.201,0.602,0.361,1.21,0.697,1.74
			c-0.326,0.361-0.655,0.72-0.982,1.08c-0.042-0.142-0.09-0.284-0.132-0.424c-0.16-0.537-0.321-1.074-0.483-1.61
			c-0.36-1.187-0.719-2.379-1.13-3.548c-0.399-1.134-0.78-2.279-1.22-3.398c-0.457-1.164-0.999-2.289-1.445-3.458
			c-0.154-0.402-0.78-0.25-0.658,0.181c0.327,1.16,0.544,2.335,0.827,3.504c0.291,1.204,0.645,2.396,0.958,3.594
			c0.303,1.161,0.646,2.313,0.973,3.467c0.164,0.577,0.326,1.156,0.486,1.734c0.084,0.301,0.142,0.624,0.281,0.906
			c0.084,0.17,0.204,0.281,0.317,0.402c-0.557,0.611-1.112,1.223-1.668,1.835c-0.03-0.133-0.058-0.266-0.088-0.399
			c-0.23-1.005-0.478-2.003-0.754-2.997c-0.575-2.07-1.392-4.042-2.131-6.055c-0.165-0.449-0.842-0.277-0.725,0.2
			c0.465,1.902,0.739,3.838,1.171,5.747c0.211,0.934,0.411,1.871,0.62,2.806c0.104,0.467,0.206,0.935,0.305,1.403
			c0.054,0.258,0.141,0.573,0.195,0.868c-1.2,1.33-2.402,2.659-3.573,4.014c-1.43,1.653-2.799,3.38-3.901,5.273
			c-0.983,1.688-1.755,3.489-2.47,5.306c-0.434,0.867-0.8,1.779-1.212,2.65c-0.288,0.608-0.585,1.213-0.877,1.819
			c0.04-0.577,0.067-1.155,0.059-1.738c-0.003-0.205-0.297-0.199-0.315,0c-0.087,0.973-0.191,1.948-0.315,2.919
			c-0.048,0.098-0.094,0.198-0.143,0.296c-0.567,1.148-1.153,2.287-1.753,3.419c0.011-0.095,0.026-0.189,0.037-0.284
			c0.144-1.3,0.27-2.603,0.382-3.907c0.108-1.252,0.314-2.63,0.022-3.867c-0.057-0.243-0.458-0.323-0.568-0.074
			c-0.488,1.106-0.538,2.387-0.672,3.575c-0.151,1.339-0.263,2.686-0.363,4.029c-0.074,0.99-0.12,1.981-0.167,2.972
			c-0.094,0.169-0.182,0.341-0.277,0.509c-0.396,0.705-0.805,1.403-1.212,2.102c0.075-0.961,0.15-1.923,0.23-2.884
			c0.083-1.008,0.351-2.297-0.101-3.239c-0.083-0.174-0.325-0.139-0.417,0c-0.531,0.803-0.462,2.072-0.512,2.999
			c-0.059,1.119-0.123,2.238-0.187,3.357c-0.03,0.529-0.058,1.057-0.087,1.586c-0.367,0.611-0.737,1.221-1.113,1.826
			c0.105-1.243,0.21-2.486,0.313-3.728c0.154-1.845,0.364-3.699,0.39-5.551c0.026-1.839,0.126-3.699-0.037-5.534
			c-0.017-0.187-0.296-0.253-0.347-0.047c-0.433,1.774-0.606,3.607-0.854,5.413c-0.254,1.854-0.334,3.732-0.461,5.598
			c-0.126,1.853-0.249,3.707-0.375,5.56c-0.011,0.163-0.015,0.326-0.023,0.488c-0.231,0.342-0.546,0.758-0.92,0.838
			c-0.234,0.05-0.435-0.085-0.611-0.306c0.201-1.272,0.399-2.544,0.579-3.818c0.346-2.448,0.643-4.887,0.867-7.352
			c0.439-4.843,0.894-9.76,0.619-14.619c-0.076-1.338-0.046-2.659,0.07-3.992c0.117-1.346,0.246-2.741,0.047-4.081
			c-0.048-0.32-0.579-0.309-0.636,0c-0.212,1.14-0.175,2.32-0.157,3.476c0.019,1.225,0.036,2.408-0.083,3.63
			c-0.119,1.215-0.349,2.414-0.469,3.628c-0.119,1.205-0.162,2.418-0.234,3.626c-0.143,2.417-0.314,4.832-0.504,7.246
			c-0.189,2.406-0.462,4.823-0.558,7.234c-0.048,1.191-0.115,2.379-0.19,3.567c-0.095-0.317-0.168-0.598-0.216-0.75
			c-0.237-0.75-0.431-1.515-0.601-2.285c-0.025-0.338-0.039-0.676-0.067-1.013c-0.086-1.031-0.169-2.081-0.431-3.083
			c0.24-6.382,0.442-12.766,0.56-19.152c0.032-1.73,0.112-3.48,0.133-5.223c0.172-0.464,0.287-0.95,0.405-1.429
			c0.125-0.508,0.236-1.018,0.334-1.531c0.101-0.527,0.25-1.089,0.269-1.627c0.01-0.277-0.059-0.548-0.202-0.767
			c0.061-0.343-0.052-0.71-0.424-0.922c-0.543-0.308-0.957-0.73-1.293-1.206c-0.043-0.204-0.149-0.367-0.295-0.481
			c-0.261-0.485-0.461-1.008-0.576-1.56c0.823-4.719,1.632-9.442,2.49-14.155c1.124-6.173,2.344-12.329,3.462-18.504
			c0.32-1.766,0.653-3.529,0.934-5.302c0.199-1.253,0.355-2.507,0.512-3.761c0.391-2.128,0.767-4.258,1.122-6.392
			c0.629-3.778,1.126-7.758-0.301-11.4C268.465,184.358,269.514,185.936,270.146,187.149z M243.219,343.23
			c-0.196-0.472-0.397-0.943-0.594-1.415c-0.039-0.286-0.089-0.569-0.125-0.855c-0.257-2.023-0.459-4.058-0.64-6.091
			c0.704-0.022,1.348-0.313,1.919-0.724c0.059,0.727,0.175,1.457,0.259,2.168c0.138,1.171,0.284,2.341,0.419,3.513
			c0.135,1.172,0.263,2.344,0.395,3.516c0.043,0.384,0.069,0.794,0.097,1.208c-0.112,0.31-0.226,0.619-0.338,0.929
			c-0.069,0.191-0.137,0.384-0.206,0.575C244.019,345.103,243.607,344.161,243.219,343.23z M241.303,334.83
			c0.044,1.509,0.148,3.009,0.283,4.511c-0.355-0.844-0.708-1.69-1.064-2.535c-0.53-1.254-1.061-2.508-1.59-3.763
			C239.548,333.869,240.274,334.643,241.303,334.83z M251.106,326.659c-0.102-0.676-0.192-1.351-0.294-2.025
			c0.487-0.761,0.96-1.53,1.432-2.3c0.006,0.521,0.008,1.043,0.026,1.564c0.006,0.181,0.019,0.361,0.029,0.541
			c-0.359,0.976-0.719,1.952-1.077,2.927C251.181,327.13,251.142,326.894,251.106,326.659z M252.966,321.504
			c-0.005-0.091-0.04-0.159-0.086-0.215c0.549-0.915,1.074-1.845,1.599-2.774c-0.483,1.311-0.964,2.623-1.448,3.934
			C253.011,322.133,252.983,321.819,252.966,321.504z M260.031,248.786c-0.001,0.004-0.002,0.009-0.003,0.013
			c-0.034,0.002-0.067,0.01-0.101,0.017c-0.08-0.069-0.167-0.129-0.26-0.181c0.106-0.011,0.211-0.025,0.317-0.035
			c0.029-0.003,0.058-0.004,0.087-0.007C260.057,248.659,260.044,248.723,260.031,248.786z M249.637,331.673
			c-0.071-0.403-0.143-0.806-0.207-1.205c-0.095-0.594-0.188-1.189-0.286-1.783c-0.063-0.386-0.133-0.775-0.222-1.159
			c0.421-0.624,0.823-1.259,1.234-1.89c0.024,0.379,0.054,0.758,0.09,1.138c0.074,0.781,0.149,1.601,0.315,2.383
			C250.255,329.997,249.944,330.835,249.637,331.673z M248.955,333.542c-0.44,1.203-0.875,2.407-1.314,3.611
			c-0.09-0.576-0.18-1.152-0.276-1.727c-0.138-0.825-0.29-1.648-0.443-2.47c-0.12-0.641-0.225-1.294-0.41-1.921
			c0.44-0.613,0.869-1.235,1.298-1.85c0.149-0.214,0.288-0.435,0.436-0.649c0.012,0.082,0.022,0.165,0.033,0.246
			c0.081,0.598,0.169,1.194,0.253,1.792C248.67,331.553,248.767,332.563,248.955,333.542z M246.882,337.957
			c0.046,0.304,0.09,0.608,0.135,0.913c-0.416,1.143-0.833,2.285-1.248,3.428c-0.101-0.865-0.203-1.729-0.311-2.593
			c-0.148-1.174-0.294-2.349-0.46-3.521c-0.127-0.896-0.204-1.833-0.426-2.72c0.198-0.2,0.386-0.406,0.557-0.613
			c0.267-0.325,0.513-0.669,0.767-1.006c0.058,0.385,0.128,0.768,0.193,1.149c0.14,0.826,0.271,1.654,0.403,2.482
			C246.624,336.302,246.757,337.129,246.882,337.957z M253.723,202.252c4.109-5.378,8.132-10.821,12.032-16.352
			c0.206,0.755,0.324,1.527,0.384,2.306c-2.095,3.002-4.165,6.023-6.148,9.1c-0.989,1.534-1.969,3.074-2.929,4.625
			c-0.983,1.588-1.877,3.219-2.802,4.842c-0.188,0.331,0.292,0.599,0.503,0.294c2.112-3.037,4.229-6.072,6.34-9.111
			c1.667-2.4,3.341-4.794,5.034-7.176c-0.084,1.271-0.266,2.539-0.474,3.772c-0.642,3.819-1.361,7.625-2.138,11.418
			c-1.56,7.619-3.352,15.195-5.363,22.707c-1.129,4.217-2.335,8.414-3.612,12.589c-0.107,0.351-0.012,0.633,0.171,0.841
			c-2.448,6.24-4.703,12.551-6.946,18.872c-0.356,1.003,1.058,1.419,1.601,0.675c1.797-2.467,3.594-4.934,5.404-7.392
			c-0.25,0.701-0.501,1.401-0.734,2.107c-1.259,3.807-2.484,7.633-3.641,11.472c-0.666,2.21-1.241,4.439-1.837,6.668
			c-0.074,0.279,0.338,0.388,0.429,0.118c2.549-7.592,5.321-15.102,8.244-22.557c0.194-0.496,0.386-0.993,0.579-1.49
			c0.18-0.045,0.36-0.09,0.54-0.135c0.05-0.012,0.188-0.026,0.273-0.052c0.003,0.104,0.003,0.205,0.003,0.226
			c0,0.053-0.002,0.107-0.002,0.16c-0.115,0.266-0.226,0.534-0.337,0.798c-0.397,0.946-0.745,1.909-1.089,2.876
			c-0.659,1.854-1.26,3.73-1.85,5.607c-1.193,3.797-2.115,7.667-3.024,11.54c-0.523,2.226-0.985,4.467-1.43,6.71
			c-0.063,0.316,0.405,0.453,0.488,0.134c2.008-7.693,4.49-15.278,7.164-22.763c0.001-0.003,0.002-0.006,0.003-0.009
			c-0.018,1.13-0.033,2.259-0.055,3.389c-0.086,4.526-0.203,9.051-0.351,13.576c-0.293,8.967-0.707,17.93-1.241,26.886
			c-0.151,2.524-0.311,5.047-0.481,7.57c-0.116,1.72-0.273,3.444-0.383,5.168c-1.018,2.022-2.072,4.026-3.193,5.993
			c-1.466,2.573-3.019,5.097-4.655,7.565c-0.818,1.234-1.659,2.453-2.516,3.661c-0.787,1.108-1.538,2.37-2.59,3.252
			c-0.468,0.392-1.076,0.742-1.707,0.586c-0.669-0.165-1.144-0.785-1.575-1.279c-0.532-0.609-1.053-1.228-1.579-1.842
			c-0.199-0.326-0.405-0.649-0.593-0.972c-0.535-0.923-1.037-1.863-1.515-2.817c-0.358-0.846-0.715-1.693-1.073-2.539
			c-0.94-2.218-1.877-4.437-2.815-6.656c-0.383-1.049-0.757-2.101-1.135-3.152c-0.103-0.285-0.218-0.566-0.325-0.85
			c0.186-0.175,0.292-0.426,0.186-0.687c-2.836-6.999-5.491-14.07-8.222-21.111c0.226-0.357,0.441-0.722,0.641-1.095
			c0.667-1.245,1.321-2.498,2.03-3.72c0.706-1.218,1.456-2.411,2.248-3.576c0.416-0.613,0.846-1.217,1.28-1.818
			c0.412-0.571,0.905-1.095,1.038-1.806c0.063-0.337-0.247-0.564-0.552-0.424c-0.613,0.28-0.96,0.816-1.353,1.34
			c-0.423,0.563-0.831,1.137-1.229,1.718c-0.816,1.193-1.587,2.416-2.314,3.665c-0.7,1.205-1.346,2.432-1.943,3.691
			c-0.116,0.244-0.234,0.487-0.353,0.73c-0.122-0.313-0.245-0.625-0.368-0.938c-0.439-1.82-0.764-3.669-1.014-5.53
			c0.918-1.469,1.684-3.045,2.593-4.514c0.362-0.586,0.758-1.149,1.124-1.732c0.364-0.581,0.643-1.213,0.971-1.815
			c0.363-0.666,0.861-1.207,1.322-1.803c0.41-0.53,0.927-0.953,1.299-1.511c0.095-0.143-0.107-0.269-0.223-0.172
			c-0.531,0.442-0.901,1.041-1.354,1.558c-0.456,0.519-0.828,1.091-1.317,1.582c-0.971,0.974-1.754,1.961-2.477,3.133
			c-0.699,1.133-1.356,2.295-1.932,3.496c-0.06,0.126-0.12,0.252-0.18,0.378c-0.043-0.357-0.091-0.714-0.132-1.071
			c-0.148-1.292-0.297-2.584-0.455-3.874c0.103-0.122,0.213-0.236,0.313-0.363c0.62-0.793,1.208-1.61,1.789-2.431
			c1.138-1.608,2.274-3.228,3.326-4.894c1.054-1.671,1.939-3.43,3.004-5.096c0.543-0.849,1.13-1.669,1.683-2.511
			c0.514-0.781,1.139-1.597,1.392-2.509c0.09-0.325-0.31-0.531-0.545-0.317c-0.699,0.635-1.148,1.569-1.616,2.377
			c-0.485,0.837-0.942,1.69-1.442,2.518c-1.028,1.7-2.244,3.248-3.357,4.89c-1.085,1.6-2.13,3.226-3.235,4.814
			c-0.496,0.712-0.998,1.42-1.496,2.13c-0.052-0.387-0.095-0.774-0.153-1.16c-0.123-0.825-0.255-1.652-0.471-2.445
			c0.537-0.693,1.074-1.385,1.591-2.095c1.322-1.818,2.63-3.645,3.929-5.478c1.321-1.864,2.598-3.759,3.869-5.658
			c1.257-1.878,2.486-3.723,3.455-5.77c0.29-0.613,0.54-1.217,0.911-1.791c0.343-0.531,0.706-1.046,1.07-1.563
			c0.708-1.005,1.446-2.037,1.862-3.204c0.06-0.169-0.177-0.294-0.295-0.172c-1.55,1.607-2.222,3.832-3.599,5.565
			c-0.7,0.881-1.501,1.686-2.165,2.603c-0.645,0.89-1.215,1.844-1.814,2.765c-2.468,3.791-4.967,7.565-7.502,11.312
			c-0.556,0.822-1.1,1.652-1.645,2.481c-0.278-0.681-0.655-1.319-1.199-1.882c-0.605-0.625-1.37-1.145-1.843-1.887
			c-0.16-0.25-0.262-0.52-0.341-0.796c0.661-0.88,1.325-1.758,1.976-2.645c1.08-1.473,2.13-2.968,3.222-4.433
			c1.068-1.432,2.127-2.871,3.214-4.289c1.096-1.43,2.264-2.869,3.043-4.504c0.146-0.306-0.195-0.549-0.452-0.349
			c-1.415,1.106-2.53,2.569-3.613,3.987c-1.107,1.449-2.208,2.906-3.264,4.393c-1.032,1.455-2.055,2.918-3.044,4.402
			c-0.421,0.633-0.817,1.287-1.212,1.941c0.011-0.141,0.017-0.283,0.037-0.423c0.184-1.285,0.6-2.558,1.048-3.809
			c1.407-2.074,2.811-4.15,4.229-6.216c1.331-1.94,2.673-3.873,4.006-5.812c0.332-0.483,0.663-0.969,0.958-1.477
			c0.297-0.51,0.506-1.058,0.781-1.579c0.583-1.105,1.517-1.887,2.206-2.914c0.196-0.292-0.27-0.662-0.494-0.381
			c-0.796,1-1.264,2.166-2.165,3.092c-0.806,0.83-1.555,1.625-2.237,2.567c-1.378,1.905-2.703,3.855-4.001,5.815
			c-0.598,0.902-1.186,1.808-1.769,2.717c0.193-0.528,0.387-1.055,0.585-1.581c0.537-0.804,1.077-1.606,1.608-2.414
			c2.334-3.553,4.709-7.082,7.134-10.573c0.696-1.002,1.395-2.002,2.099-2.999c0.707-1.001,1.431-1.966,1.98-3.065
			c0.231-0.463-0.342-0.955-0.735-0.567c-1.506,1.489-2.65,3.37-3.867,5.097c-1.225,1.738-2.431,3.489-3.625,5.248
			c-0.755,1.112-1.502,2.231-2.244,3.355c0.366-0.878,0.736-1.755,1.114-2.628c1.687-3.895,3.512-7.747,5.382-11.563
			c0.546-0.666,1.091-1.332,1.636-1.999C237.441,222.941,245.731,212.713,253.723,202.252z M206.243,263.577
			c0.025,0.06,0.051,0.119,0.077,0.179c-0.027-0.053-0.054-0.107-0.081-0.16C206.24,263.589,206.242,263.584,206.243,263.577z
			 M171.477,288.203c0.033,0.032,0.064,0.064,0.101,0.091c-0.031,0.011-0.063,0.019-0.095,0.029
			C171.478,288.284,171.481,288.243,171.477,288.203z M176.538,288.94c0.077,0.079,0.149,0.163,0.218,0.25
			c-0.064,0.013-0.129,0.026-0.194,0.039C176.554,289.133,176.546,289.037,176.538,288.94z M197.17,312.069
			c0.179-0.37,0.309-0.773,0.438-1.142c0.254-0.728,0.505-1.458,0.773-2.181c0.549-1.484,1.04-2.99,1.552-4.487
			c0.499-1.459,0.998-2.917,1.497-4.376c0.469-1.37,1.253-2.898,1.036-4.374c-0.053-0.361-0.556-0.432-0.782-0.206
			c-1.013,1.016-1.287,2.728-1.704,4.054c-0.475,1.507-0.949,3.015-1.423,4.522c-0.462,1.468-0.948,2.931-1.374,4.41
			c-0.213,0.74-0.441,1.475-0.667,2.21c-0.181,0.586-0.395,1.206-0.381,1.826c-0.01,0.003-0.021,0.006-0.031,0.009
			c-0.217,0.069-0.436,0.126-0.655,0.182c1.183-6.092,3.507-11.976,3.845-18.216c0.086-1.594-0.015-3.186-0.286-4.759
			c-0.224-1.304-0.464-3.122-1.74-3.838c-0.268-0.15-0.554-0.217-0.845-0.248c0.448-0.39,0.318-1.134-0.166-1.457
			c-2.92-1.954-6.488-1.78-9.822-2.289c-0.164-0.025-0.337-0.051-0.513-0.079c0.47-1.06,0.942-2.12,1.376-3.197
			c0.341-0.845,0.686-1.688,1.016-2.538c0.164-0.422,0.301-0.855,0.422-1.292c0.103-0.371,0.243-0.736,0.149-1.117
			c-0.043-0.173-0.269-0.273-0.423-0.172c-0.326,0.215-0.468,0.561-0.642,0.903c-0.197,0.388-0.384,0.786-0.542,1.191
			c-0.343,0.877-0.641,1.768-0.949,2.657c-0.395,1.141-0.723,2.297-1.046,3.455c-0.417-0.079-0.845-0.177-1.255-0.311
			c0.512-1.468,1.032-2.934,1.558-4.397c0.558-1.55,1.174-3.107,1.535-4.714c0.371-1.654,1.098-3.192,1.518-4.831
			c0.055-0.214-0.256-0.358-0.365-0.154c-0.794,1.489-1.256,3.116-2.026,4.617c-0.756,1.474-1.246,3.083-1.749,4.66
			c-0.47,1.477-0.904,2.965-1.315,4.459c-0.504-0.268-0.938-0.621-1.212-1.117c-0.106-0.193-0.187-0.397-0.253-0.607
			c0.858-2.529,1.708-5.061,2.492-7.617c0.322-1.051,0.627-2.107,0.936-3.161c0.32-1.091,0.689-2.181,0.882-3.302
			c0.09-0.52,0.234-1.041,0.295-1.565c0.068-0.586,0.049-1.137,0.25-1.704c0.383-1.079,0.877-2.113,1.247-3.202
			c0.393-1.156,0.725-2.334,1.082-3.501c0.379-1.242,0.759-2.505,0.933-3.795c0.04-0.297-0.38-0.561-0.54-0.227
			c-0.938,1.965-1.436,4.145-2.041,6.227c-0.316,1.092-0.626,2.201-0.799,3.325c-0.08,0.518-0.145,1.061-0.327,1.556
			c-0.215,0.581-0.601,1.089-0.831,1.67c-0.831,2.092-1.47,4.224-2.118,6.381c-0.527,1.755-1.024,3.52-1.488,5.293
			c0.031-0.231,0.062-0.458,0.089-0.674c1.016-8.283,3.572-16.293,5.946-24.262c1.374-4.612,2.713-9.227,3.886-13.893
			c0.033-0.131-0.036-0.215-0.126-0.257c0.017-0.103,0.034-0.205,0.049-0.307c0.779,2.056,1.635,4.086,2.515,6.096
			c1.594,3.644,3.298,7.241,5.068,10.802c3.581,7.204,7.289,14.342,10.568,21.691c0.953,2.135,1.871,4.285,2.805,6.429
			c0.458,1.051,0.895,2.112,1.371,3.155c0.487,1.067,0.926,2.186,1.539,3.186c0.149,0.244,0.385,0.302,0.596,0.249
			c0.462,1.149,0.942,2.292,1.47,3.419c0.971,2.075,1.951,4.145,2.926,6.218c1.95,4.143,3.923,8.275,5.932,12.39
			c0.417,0.853,0.895,1.845,1.558,2.59c1.067,2.517,2.1,5.048,3.076,7.603c0.651,1.707,1.279,3.424,1.928,5.132
			c0.654,1.723,1.322,3.449,2.208,5.066c0.161,0.293,0.451,0.277,0.645,0.117c0.793,1.904,1.585,3.808,2.379,5.712
			c0.989,2.369,1.973,4.739,2.975,7.103c0.471,1.111,0.921,2.262,1.407,3.395c0.066,0.481,0.098,0.98,0.425,1.351
			c0.067,0.076,0.152,0.091,0.234,0.081c0.112,0.232,0.216,0.468,0.335,0.696c-0.913,2.566-1.792,5.147-2.596,7.748
			c-6.8-3.439-14.547-3.007-21.849-4.46c-3.993-0.795-7.865-2.113-11.665-3.557c-1.326-0.504-2.651-1.019-3.968-1.549
			c0.046-0.359,0.092-0.719,0.143-1.076c0.231-1.621,0.485-3.239,0.777-4.85c0.092-0.509-0.676-0.732-0.784-0.216
			c-0.342,1.63-0.65,3.266-0.901,4.913c-0.044,0.288-0.087,0.578-0.13,0.867c-0.197-0.082-0.397-0.157-0.593-0.241
			c-0.287-0.121-0.572-0.253-0.852-0.394c0.12-0.822,0.248-1.644,0.366-2.466c0.293-2.045,0.548-4.092,0.796-6.143
			c0.252-2.088,0.377-4.189,0.615-6.279c0.046-0.406-0.638-0.499-0.716-0.097c-0.4,2.069-0.912,4.115-1.298,6.186
			c-0.38,2.037-0.749,4.074-1.083,6.119c-0.089,0.543-0.17,1.088-0.258,1.631c-0.285-0.255-0.549-0.531-0.763-0.853
			c0.086-0.554,0.173-1.109,0.257-1.663c0.606-3.991,1.01-8.003,1.323-12.026c0.177-2.275,0.267-4.553,0.431-6.829
			c0.019-0.264-0.378-0.255-0.406,0c-0.573,5.094-1.496,10.175-2.35,15.229c-0.04,0.24-0.079,0.48-0.119,0.719
			c0.024-0.881,0.09-1.761,0.116-2.601c0.037-1.218,0.076-2.437,0.109-3.655c0.009-0.325,0.024-0.653,0.041-0.981
			c0.004-0.023,0.006-0.047,0.01-0.071c0.19-0.887,0.38-1.775,0.554-2.665c0.046-0.237-0.003-0.437-0.089-0.613
			c0.03-0.232,0.07-0.461,0.098-0.693c0.349-2.872,0.68-5.75,0.946-8.631c0.037-0.403-0.301-0.735-0.674-0.836
			c0.118-0.602,0.244-1.203,0.359-1.806c0.27-1.42,0.85-3.693-0.68-4.47c0.259-0.449,0.489-0.917,0.707-1.374
			c0.429-0.897,0.797-1.817,1.174-2.737c0.37-0.903,0.728-1.81,1.084-2.718c0.37-0.945,0.756-1.79,0.667-2.825
			c-0.026-0.303-0.373-0.477-0.609-0.252c-0.715,0.682-0.991,1.494-1.328,2.404c-0.35,0.945-0.704,1.889-1.044,2.837
			c-0.329,0.915-0.674,1.823-0.955,2.753c-0.167,0.549-0.342,1.117-0.466,1.691C197.651,312.03,197.41,312.033,197.17,312.069z
			 M196.16,331.734c0.011-0.018,0.022-0.037,0.034-0.055c-0.015,0.118-0.029,0.235-0.043,0.353c-0.63,2.889-1.37,5.753-2.168,8.6
			c0.047-0.182,0.098-0.363,0.145-0.546C194.84,337.311,195.51,334.525,196.16,331.734z M380.116,354.823
			c0.487,0.646,0.976,1.29,1.466,1.934c0.295,0.54,0.589,1.08,0.886,1.618C381.663,357.205,380.883,356.018,380.116,354.823z"/>
		<path style="fill:#1D1D1B;" d="M392.471,310.639c-0.482,0.439-0.886,0.954-1.31,1.449c-0.424,0.496-0.84,1-1.258,1.5
			c-0.127,0.153-0.15,0.371,0,0.521c0.132,0.132,0.392,0.153,0.521,0c0.427-0.507,0.856-1.011,1.277-1.523
			c0.426-0.519,0.875-1.021,1.234-1.589C393.12,310.704,392.712,310.419,392.471,310.639z"/>
		<path style="fill:#1D1D1B;" d="M392.844,326.688c-0.385,0.568-0.782,1.132-1.184,1.689c-0.395,0.548-0.817,1.075-1.262,1.585
			c-0.127,0.145-0.143,0.362,0,0.504c0.133,0.132,0.373,0.142,0.505,0c0.489-0.528,0.951-1.078,1.39-1.648
			c0.212-0.276,0.43-0.553,0.619-0.844c0.195-0.3,0.368-0.616,0.541-0.929C393.675,326.642,393.097,326.315,392.844,326.688z"/>
		<path style="fill:#1D1D1B;" d="M339.126,299.026c-0.483,1.035-0.555,2.075-0.603,3.199c-0.049,1.137-0.084,2.275-0.116,3.413
			c-0.065,2.316-0.077,4.633-0.079,6.95c-0.005,4.599,0.271,9.187,0.344,13.782c0.006,0.395,0.607,0.396,0.614,0
			c0.07-4.555,0.447-9.109,0.652-13.66c0.103-2.276,0.227-4.551,0.322-6.828c0.048-1.138,0.101-2.275,0.145-3.413
			c0.044-1.132,0.108-2.226-0.283-3.313C339.979,298.76,339.341,298.565,339.126,299.026z"/>
		<path style="fill:#1D1D1B;" d="M339.813,294.618c0.062-0.792,0.18-1.591,0.175-2.385c-0.005-0.776-0.017-1.61-0.252-2.355
			c-0.069-0.219-0.375-0.219-0.444,0c-0.235,0.745-0.247,1.579-0.252,2.355c-0.005,0.794,0.113,1.594,0.175,2.385
			C339.244,295.002,339.783,295.003,339.813,294.618z"/>
		<path style="fill:#1D1D1B;" d="M430.867,328.681c-0.472,0.223-0.698,0.696-0.897,1.155c-0.228,0.525-0.456,1.048-0.683,1.573
			c-0.424,0.981-0.828,1.971-1.259,2.948c-0.896,2.034-1.682,4.105-2.546,6.15c-0.119,0.282,0.269,0.534,0.424,0.248
			c1.069-1.972,2.175-3.905,3.157-5.924c0.481-0.99,0.983-1.969,1.457-2.964c0.393-0.825,1.231-2.001,0.95-2.94
			C431.389,328.656,431.108,328.567,430.867,328.681z"/>
		<path style="fill:#1D1D1B;" d="M422.729,334.249c1.45-2.232,2.861-4.476,4.179-6.79c0.648-1.137,1.25-2.3,1.828-3.473
			c0.574-1.166,1.237-2.381,1.514-3.66c0.123-0.568-0.578-0.83-0.904-0.381c-0.764,1.048-1.253,2.309-1.812,3.472
			c-0.568,1.182-1.151,2.356-1.719,3.538c-1.134,2.358-2.348,4.696-3.65,6.965C421.956,334.286,422.501,334.599,422.729,334.249z"/>
	</g>
</g>
</svg>
