<svg width="1920" height="1080" viewBox="0 0 1920 1080" fill="none" xmlns="http://www.w3.org/2000/svg">
  <defs>
    <linearGradient id="mountainGradient" x1="0%" y1="0%" x2="100%" y2="100%">
      <stop offset="0%" style="stop-color:#1e3a8a;stop-opacity:1" />
      <stop offset="50%" style="stop-color:#3b82f6;stop-opacity:1" />
      <stop offset="100%" style="stop-color:#60a5fa;stop-opacity:1" />
    </linearGradient>
    <linearGradient id="skyGradient" x1="0%" y1="0%" x2="0%" y2="100%">
      <stop offset="0%" style="stop-color:#fbbf24;stop-opacity:1" />
      <stop offset="50%" style="stop-color:#f59e0b;stop-opacity:1" />
      <stop offset="100%" style="stop-color:#3b82f6;stop-opacity:1" />
    </linearGradient>
  </defs>
  
  <!-- Sky background -->
  <rect width="1920" height="1080" fill="url(#skyGradient)"/>
  
  <!-- Mountains -->
  <polygon points="0,600 400,300 800,450 1200,200 1600,350 1920,250 1920,1080 0,1080" fill="url(#mountainGradient)" opacity="0.8"/>
  <polygon points="200,700 600,400 1000,550 1400,300 1800,450 1920,350 1920,1080 0,1080" fill="url(#mountainGradient)" opacity="0.6"/>
  
  <!-- Hotel building silhouette -->
  <rect x="800" y="500" width="320" height="200" fill="#1f2937" opacity="0.7"/>
  <polygon points="800,500 960,400 1120,500" fill="#374151" opacity="0.7"/>
  
  <!-- Windows -->
  <rect x="820" y="520" width="20" height="30" fill="#fbbf24" opacity="0.8"/>
  <rect x="860" y="520" width="20" height="30" fill="#fbbf24" opacity="0.8"/>
  <rect x="900" y="520" width="20" height="30" fill="#fbbf24" opacity="0.8"/>
  <rect x="940" y="520" width="20" height="30" fill="#fbbf24" opacity="0.8"/>
  <rect x="980" y="520" width="20" height="30" fill="#fbbf24" opacity="0.8"/>
  <rect x="1020" y="520" width="20" height="30" fill="#fbbf24" opacity="0.8"/>
  <rect x="1060" y="520" width="20" height="30" fill="#fbbf24" opacity="0.8"/>
  <rect x="1100" y="520" width="20" height="30" fill="#fbbf24" opacity="0.8"/>
  
  <!-- Trees -->
  <circle cx="700" cy="650" r="50" fill="#065f46" opacity="0.6"/>
  <rect x="695" y="650" width="10" height="50" fill="#92400e" opacity="0.6"/>
  <circle cx="1200" cy="680" r="40" fill="#065f46" opacity="0.6"/>
  <rect x="1195" y="680" width="10" height="40" fill="#92400e" opacity="0.6"/>
  
  <!-- Text overlay -->
  <text x="960" y="900" text-anchor="middle" fill="white" font-family="serif" font-size="48" font-weight="bold">Hotel Shasha Valley View</text>
</svg>